<?xml version="1.0" encoding="UTF-8" standalone="no"?>
<!-- Created with Inkscape (http://www.inkscape.org/) -->

<svg
   width="210mm"
   height="297mm"
   viewBox="0 0 210 297"
   version="1.1"
   id="svg1"
   xml:space="preserve"
   inkscape:version="1.3.2 (091e20e, 2023-11-25, custom)"
   sodipodi:docname="sign.svg"
   xmlns:inkscape="http://www.inkscape.org/namespaces/inkscape"
   xmlns:sodipodi="http://sodipodi.sourceforge.net/DTD/sodipodi-0.dtd"
   xmlns="http://www.w3.org/2000/svg"
   xmlns:svg="http://www.w3.org/2000/svg"><sodipodi:namedview
     id="namedview1"
     pagecolor="#ffffff"
     bordercolor="#666666"
     borderopacity="1.0"
     inkscape:showpageshadow="2"
     inkscape:pageopacity="0.0"
     inkscape:pagecheckerboard="0"
     inkscape:deskcolor="#d1d1d1"
     inkscape:document-units="mm"
     inkscape:zoom="0.2102413"
     inkscape:cx="887.07594"
     inkscape:cy="1755.1261"
     inkscape:window-width="1920"
     inkscape:window-height="1057"
     inkscape:window-x="1672"
     inkscape:window-y="-8"
     inkscape:window-maximized="1"
     inkscape:current-layer="layer1" /><defs
     id="defs1"><rect
   x="174.20459"
   y="412.62111"
   width="289.54825"
   height="73.72481"
   id="rect2" />
	
	

		
		
		
		
		
		
		
		
		
		
		
		
		
		
		
		
		
		
	
		
	
			
			
			
			
			
			
			
			
		
	
	

		
	
		
		
		
		
		
		
		
		
		
		
		
		
		
		
		
		
		
		
	
			
			
			
			
			
			
			
			
		</defs><g
     inkscape:label="Layer 1"
     inkscape:groupmode="layer"
     id="layer1"><text
       xml:space="preserve"
       transform="scale(0.26458333)"
       id="text2"
       style="font-size:40px;line-height:1.25;font-family:sans-serif;letter-spacing:-0.03px;word-spacing:0px;white-space:pre;shape-inside:url(#rect2);display:inline" /><g
       id="g4"><rect
         style="opacity:1;fill:#550000;stroke:#000000;stroke-width:0.429033"
         id="rect3"
         width="498.08124"
         height="226.442"
         x="4.7420492"
         y="25.91678"
         rx="5.9000001"
         ry="5" /><g
         id="g28"
         transform="matrix(0.98064073,0,0,0.98064073,-21.395906,4.1236647)">
	<g
   id="g18">
		<path
   fill="#009fc2"
   d="m 291.098,53.284 c 0,4.381 -1.555,8.126 -4.664,11.234 -3.108,3.107 -6.853,4.661 -11.232,4.661 h -2.648 c -1.768,0 -2.65,0.883 -2.65,2.65 V 95.671 H 259.308 V 37.39 c 0,-1.482 0.512,-2.736 1.537,-3.761 1.023,-1.024 2.277,-1.537 3.762,-1.537 h 10.596 c 4.38,0 8.124,1.556 11.232,4.663 3.109,3.109 4.664,6.852 4.664,11.232 v 5.297 z m -10.598,0 v -5.297 c 0,-1.482 -0.512,-2.736 -1.537,-3.761 -1.023,-1.025 -2.279,-1.537 -3.762,-1.537 h -2.648 c -1.768,0 -2.65,0.883 -2.65,2.647 v 10.598 c 0,1.766 0.883,2.649 2.65,2.649 h 2.648 c 1.482,0 2.738,-0.512 3.762,-1.536 1.026,-1.025 1.537,-2.277 1.537,-3.763 z"
   id="path1" />
		<path
   fill="#009fc2"
   d="m 327.729,79.776 c 0,4.381 -1.557,8.125 -4.664,11.234 -3.107,3.107 -6.852,4.661 -11.232,4.661 -4.379,0 -8.125,-1.554 -11.232,-4.661 -3.107,-3.109 -4.662,-6.854 -4.662,-11.234 V 32.092 h 10.598 v 47.685 c 0,1.483 0.512,2.737 1.535,3.762 1.025,1.023 2.279,1.536 3.762,1.536 1.483,0 2.738,-0.513 3.762,-1.536 1.025,-1.024 1.537,-2.278 1.537,-3.762 V 32.092 h 10.598 v 47.684 z"
   id="path2" />
		<path
   fill="#009fc2"
   d="M 388.551,95.672 H 377.955 V 45.337 c 0,-1.765 -0.883,-2.647 -2.648,-2.647 h -2.65 c -1.482,0 -2.736,0.512 -3.762,1.537 -1.023,1.024 -1.537,2.278 -1.537,3.761 V 95.673 H 356.762 V 47.987 c 0,-1.482 -0.512,-2.736 -1.537,-3.761 -1.023,-1.025 -2.279,-1.537 -3.762,-1.537 h -2.648 c -1.768,0 -2.65,0.883 -2.65,2.647 v 50.335 h -10.596 v -63.58 h 15.895 c 4.025,0 7.559,1.343 10.598,4.026 3.037,-2.684 6.568,-4.026 10.596,-4.026 h 15.895 v 63.581 z"
   id="path3" />
		<path
   fill="#009fc2"
   d="m 428.182,53.284 c 0,4.381 -1.555,8.126 -4.664,11.234 -3.107,3.107 -6.852,4.661 -11.23,4.661 h -2.648 c -1.768,0 -2.65,0.883 -2.65,2.65 V 95.671 H 396.394 V 37.39 c 0,-1.482 0.512,-2.736 1.537,-3.761 1.023,-1.024 2.277,-1.537 3.762,-1.537 h 10.596 c 4.379,0 8.123,1.556 11.23,4.663 3.109,3.109 4.664,6.852 4.664,11.232 v 5.297 z m -10.596,0 v -5.297 c 0,-1.482 -0.514,-2.736 -1.537,-3.761 -1.025,-1.025 -2.279,-1.537 -3.762,-1.537 h -2.648 c -1.768,0 -2.65,0.883 -2.65,2.647 v 10.598 c 0,1.766 0.883,2.649 2.65,2.649 h 2.648 c 1.482,0 2.736,-0.512 3.762,-1.536 1.023,-1.025 1.537,-2.277 1.537,-3.763 z"
   id="path4" />
		<path
   fill="#009fc2"
   d="m 445.619,95.672 h -10.596 v -63.58 h 10.596 z"
   id="path5" />
		<path
   fill="#009fc2"
   d="m 485.25,95.672 h -10.596 l -9.113,-27.338 c -0.426,-1.273 -0.777,-1.91 -1.061,-1.91 -0.211,0 -0.354,0.603 -0.424,1.804 V 95.672 H 453.46 v -63.58 h 10.596 l 9.324,27.869 c 0.283,0.918 0.566,1.378 0.85,1.378 0.281,0 0.424,-0.529 0.424,-1.589 V 32.092 h 10.596 z"
   id="path6" />
		<path
   fill="#009fc2"
   d="m 524.881,79.776 c 0,4.381 -1.555,8.125 -4.662,11.234 -3.109,3.107 -6.854,4.661 -11.232,4.661 -4.381,0 -8.125,-1.554 -11.232,-4.661 -3.109,-3.109 -4.664,-6.854 -4.664,-11.234 V 47.987 c 0,-4.381 1.555,-8.123 4.664,-11.232 3.107,-3.107 6.852,-4.663 11.232,-4.663 4.379,0 8.123,1.556 11.232,4.663 3.107,3.109 4.662,6.852 4.662,11.232 h -10.596 c 0,-1.482 -0.514,-2.736 -1.537,-3.761 -1.025,-1.025 -2.279,-1.537 -3.762,-1.537 -1.484,0 -2.738,0.512 -3.762,1.537 -1.025,1.024 -1.537,2.278 -1.537,3.761 v 31.789 c 0,1.483 0.514,2.737 1.543,3.762 1.025,1.023 2.285,1.536 3.773,1.536 1.488,0 2.746,-0.513 3.775,-1.536 1.025,-1.024 1.541,-2.278 1.541,-3.762 0,-1.059 0.035,-2.332 0.105,-3.815 0.07,-1.48 0.107,-2.437 0.107,-2.86 0,-1.555 -0.357,-2.594 -1.068,-3.125 -0.711,-0.53 -2.203,-0.796 -4.479,-0.796 V 58.584 h 15.895 v 21.192 z"
   id="path7" />
		<path
   fill="#009fc2"
   d="m 291.098,153.574 c 0,4.381 -1.555,8.125 -4.664,11.234 -3.108,3.107 -6.853,4.66 -11.232,4.66 -4.379,0 -8.124,-1.553 -11.232,-4.66 -3.108,-3.109 -4.662,-6.854 -4.662,-11.234 h 10.596 c 0,1.484 0.514,2.736 1.537,3.762 1.024,1.023 2.278,1.537 3.762,1.537 2.613,0 4.275,-1.234 4.98,-3.709 0.212,-0.92 0.318,-3.215 0.318,-6.887 0,-1.482 -0.512,-2.738 -1.537,-3.763 -1.023,-1.023 -2.279,-1.537 -3.762,-1.537 -4.379,0 -8.124,-1.553 -11.232,-4.66 -3.108,-3.107 -4.662,-6.854 -4.662,-11.234 v -5.297 c 0,-4.381 1.554,-8.122 4.662,-11.232 3.108,-3.107 6.854,-4.663 11.232,-4.663 4.38,0 8.124,1.556 11.232,4.663 3.109,3.11 4.664,6.852 4.664,11.232 H 280.5 c 0,-1.482 -0.512,-2.736 -1.537,-3.761 -1.023,-1.025 -2.279,-1.537 -3.762,-1.537 -2.613,0 -4.273,1.234 -4.98,3.708 -0.211,0.919 -0.318,3.215 -0.318,6.887 0,1.484 0.514,2.738 1.537,3.764 1.024,1.023 2.278,1.535 3.762,1.535 4.38,0 8.124,1.555 11.232,4.662 3.109,3.109 4.664,6.854 4.664,11.234 z"
   id="path8" />
		<path
   fill="#009fc2"
   d="m 326.729,116.487 h -7.949 c -1.766,0 -2.648,0.883 -2.648,2.647 v 50.334 h -10.596 v -50.334 c 0,-1.765 -0.885,-2.647 -2.65,-2.647 h -7.947 V 105.89 h 31.791 v 10.597 z"
   id="path9" />
		<path
   fill="#009fc2"
   d="m 363.357,169.469 h -10.596 v -23.842 c 0,-1.765 -0.885,-2.65 -2.65,-2.65 h -5.297 c -1.768,0 -2.65,0.885 -2.65,2.65 v 23.842 h -10.596 v -47.684 c 0,-4.381 1.555,-8.122 4.662,-11.232 3.109,-3.107 6.854,-4.663 11.232,-4.663 4.381,0 8.125,1.556 11.232,4.663 3.109,3.11 4.662,6.852 4.662,11.232 v 47.684 z m -10.595,-39.736 v -7.948 c 0,-1.482 -0.512,-2.736 -1.537,-3.761 -1.023,-1.025 -2.279,-1.537 -3.762,-1.537 -1.484,0 -2.736,0.512 -3.762,1.537 -1.023,1.024 -1.537,2.278 -1.537,3.761 v 7.948 c 0,1.766 0.883,2.648 2.65,2.648 h 5.297 c 1.766,0 2.651,-0.882 2.651,-2.648 z"
   id="path10" />
		<path
   fill="#009fc2"
   d="m 400.988,116.487 h -7.947 c -1.768,0 -2.648,0.883 -2.648,2.647 v 50.334 h -10.598 v -50.334 c 0,-1.765 -0.883,-2.647 -2.648,-2.647 H 369.2 V 105.89 h 31.789 v 10.597 z"
   id="path11" />
		<path
   fill="#009fc2"
   d="M 417.426,169.469 H 406.83 V 105.89 h 10.596 z"
   id="path12" />
		<path
   fill="#009fc2"
   d="m 458.057,153.574 c 0,4.381 -1.555,8.125 -4.662,11.234 -3.109,3.107 -6.854,4.66 -11.232,4.66 -4.381,0 -8.125,-1.553 -11.232,-4.66 -3.109,-3.109 -4.662,-6.854 -4.662,-11.234 v -31.789 c 0,-4.381 1.553,-8.122 4.662,-11.232 3.107,-3.107 6.852,-4.663 11.232,-4.663 4.379,0 8.123,1.556 11.232,4.663 3.107,3.11 4.662,6.852 4.662,11.232 z m -10.596,0 v -31.789 c 0,-1.482 -0.514,-2.736 -1.537,-3.761 -1.025,-1.025 -2.279,-1.537 -3.762,-1.537 -1.484,0 -2.736,0.512 -3.762,1.537 -1.025,1.024 -1.537,2.278 -1.537,3.761 v 31.789 c 0,1.484 0.512,2.736 1.537,3.762 1.025,1.023 2.277,1.537 3.762,1.537 1.482,0 2.736,-0.514 3.762,-1.537 1.023,-1.025 1.537,-2.277 1.537,-3.762 z"
   id="path13" />
		<path
   fill="#009fc2"
   d="m 498.688,169.469 h -10.596 l -9.113,-27.337 c -0.424,-1.273 -0.777,-1.91 -1.061,-1.91 -0.211,0 -0.354,0.604 -0.424,1.803 v 27.445 h -10.596 v -63.58 h 10.596 l 9.326,27.869 c 0.281,0.92 0.564,1.379 0.846,1.379 0.283,0 0.426,-0.529 0.426,-1.59 V 105.89 h 10.596 z"
   id="path14" />
		<path
   fill="#009fc2"
   d="m 519.125,137.68 h -10.596 v -13.598 h 10.596 z m 0,31.789 h -10.596 v -13.596 h 10.596 z"
   id="path15" />
		<path
   fill="#009fc2"
   d="m 291.098,227.373 c 0,4.381 -1.555,8.125 -4.664,11.232 -3.108,3.109 -6.853,4.662 -11.232,4.662 -4.379,0 -8.124,-1.553 -11.232,-4.662 -3.108,-3.107 -4.662,-6.852 -4.662,-11.232 v -31.789 c 0,-4.381 1.554,-8.123 4.662,-11.232 3.108,-3.107 6.854,-4.664 11.232,-4.664 4.38,0 8.124,1.557 11.232,4.664 3.109,3.109 4.664,6.852 4.664,11.232 z m -10.598,0 v -31.789 c 0,-1.484 -0.512,-2.738 -1.537,-3.762 -1.023,-1.025 -2.279,-1.537 -3.762,-1.537 -1.483,0 -2.737,0.512 -3.762,1.537 -1.023,1.023 -1.537,2.277 -1.537,3.762 v 31.789 c 0,1.482 0.514,2.736 1.537,3.76 1.024,1.025 2.278,1.537 3.762,1.537 1.482,0 2.738,-0.512 3.762,-1.537 1.026,-1.024 1.537,-2.278 1.537,-3.76 z"
   id="path16" />
		<path
   fill="#009fc2"
   d="m 330.729,243.268 h -10.598 l -9.113,-27.338 c -0.424,-1.273 -0.777,-1.91 -1.059,-1.91 -0.213,0 -0.355,0.602 -0.424,1.803 v 27.445 h -10.598 v -63.58 h 10.598 l 9.324,27.869 c 0.281,0.918 0.564,1.379 0.848,1.379 0.281,0 0.424,-0.529 0.424,-1.59 v -27.658 h 10.598 z"
   id="path17" />
		<path
   fill="#009fc2"
   d="m 370.357,190.285 h -18.543 c -1.768,0 -2.65,0.883 -2.65,2.648 v 10.596 c 0,1.768 0.883,2.65 2.65,2.65 h 13.246 v 10.596 h -13.246 c -1.768,0 -2.65,0.883 -2.65,2.648 v 10.598 c 0,1.768 0.883,2.648 2.65,2.648 h 18.543 v 10.598 h -26.49 c -1.484,0 -2.738,-0.512 -3.762,-1.537 -1.025,-1.025 -1.537,-2.277 -1.537,-3.76 v -52.984 c 0,-1.482 0.512,-2.738 1.537,-3.762 1.023,-1.023 2.277,-1.537 3.762,-1.537 h 26.49 z"
   id="path18" />
	</g>
	<g
   id="g27">
		<g
   id="g26">
			<path
   fill="#d11242"
   d="m 141.553,179.264 c -5.887,0.006 -10.656,4.779 -10.656,10.656 0,5.893 4.769,10.66 10.656,10.66 5.887,0 10.661,-4.768 10.661,-10.66 0,-5.877 -4.774,-10.656 -10.661,-10.656 z"
   id="path19" />
			<path
   fill="#d11242"
   d="m 141.553,95.636 c 5.887,0 10.661,-4.769 10.661,-10.661 0,-5.887 -4.774,-10.656 -10.661,-10.656 -5.887,0 -10.661,4.769 -10.661,10.656 0,5.893 4.774,10.661 10.661,10.661 z"
   id="path20" />
			<path
   fill="#d11242"
   d="m 90.78,154.457 c -5.101,2.939 -6.847,9.455 -3.901,14.561 2.941,5.096 9.46,6.842 14.562,3.906 5.096,-2.951 6.842,-9.465 3.901,-14.572 -2.946,-5.09 -9.466,-6.842 -14.562,-3.895 z"
   id="path21" />
			<path
   fill="#d11242"
   d="m 141.553,117.771 c -10.868,0 -19.68,8.816 -19.68,19.685 0,10.857 8.812,19.679 19.68,19.679 10.868,0 19.679,-8.822 19.679,-19.679 0,-10.869 -8.811,-19.685 -19.679,-19.685 z"
   id="path22" />
			<path
   fill="#d11242"
   d="m 101.441,101.976 c -5.101,-2.936 -11.621,-1.189 -14.562,3.906 -2.946,5.102 -1.2,11.621 3.901,14.557 5.096,2.952 11.616,1.195 14.562,-3.896 2.941,-5.101 1.195,-11.621 -3.901,-14.567 z"
   id="path23" />
			<path
   fill="#d11242"
   d="M 241.799,32.467 H 41.308 c -2.744,0 -4.967,2.225 -4.967,4.968 v 200.491 c 0,2.742 2.223,4.967 4.967,4.967 H 241.8 c 2.744,0 4.967,-2.225 4.967,-4.967 V 37.435 c -0.001,-2.743 -2.224,-4.968 -4.968,-4.968 z m -31.196,73.994 c 0,0 -0.027,-0.011 -0.077,-0.033 -0.054,-0.017 -0.109,-0.027 -0.164,-0.044 -0.78,-0.174 -3.208,-0.316 -3.693,4.256 0.196,6.994 -3.345,13.874 -9.832,17.616 -5.02,2.893 -10.787,3.328 -15.904,1.676 -1.146,-0.295 -5.729,-0.938 -6.58,7.463 l -0.005,-0.016 c 0,0.021 0,0.049 0,0.076 0,0.017 0,0.039 0,0.065 l 0.011,-0.021 c 0.862,8.528 5.565,7.737 6.624,7.447 0.055,-0.011 0.114,-0.027 0.169,-0.044 0.027,-0.011 0.044,-0.021 0.044,-0.021 5.052,-1.55 10.704,-1.086 15.642,1.767 6.465,3.727 10.006,10.58 9.832,17.535 0.562,5.539 3.939,4.25 3.939,4.25 l -0.011,0.018 c 2.581,-0.633 5.401,-0.328 7.889,1.107 5.096,2.936 6.842,9.461 3.9,14.566 -2.946,5.096 -9.465,6.832 -14.562,3.896 -2.488,-1.436 -4.163,-3.721 -4.899,-6.285 l -0.005,0.01 c 0,0 0,-0.027 -0.016,-0.076 -0.011,-0.055 -0.027,-0.109 -0.044,-0.158 -0.234,-0.752 -1.32,-2.945 -5.538,-1.068 -5.958,3.66 -13.684,4.037 -20.165,0.289 -5.02,-2.902 -8.276,-7.682 -9.4,-12.932 -0.316,-1.145 -2.057,-5.439 -9.755,-1.975 l 0.005,-0.016 c -0.038,0.027 -0.076,0.049 -0.114,0.076 h 0.016 c -6.956,5.008 -3.917,8.691 -3.137,9.461 0.044,0.037 0.082,0.086 0.125,0.119 0.017,0.016 0.027,0.027 0.033,0.033 3.874,3.596 6.302,8.729 6.302,14.42 0,7.463 -4.157,13.961 -10.279,17.289 -4.512,3.258 -1.708,5.543 -1.708,5.543 h -0.021 c 1.844,1.916 2.99,4.508 2.99,7.383 0,5.887 -4.774,10.654 -10.661,10.654 -5.887,0 -10.656,-4.768 -10.656,-10.654 0,-2.871 1.141,-5.467 2.984,-7.383 0.011,-0.016 0.033,-0.033 0.06,-0.059 0.033,-0.039 0.071,-0.072 0.104,-0.109 0.535,-0.584 1.898,-2.625 -1.839,-5.336 -6.149,-3.328 -10.333,-9.838 -10.333,-17.328 0,-5.795 2.51,-11 6.503,-14.605 0.829,-0.84 3.677,-4.496 -3.175,-9.428 h 0.011 c -0.038,-0.027 -0.076,-0.039 -0.114,-0.076 l 0.011,0.016 c -7.818,-3.514 -9.488,0.971 -9.766,2.02 -0.011,0.055 -0.027,0.113 -0.038,0.168 -0.005,0.039 -0.011,0.045 -0.011,0.045 -1.179,5.15 -4.409,9.82 -9.346,12.674 -6.46,3.736 -14.158,3.377 -20.105,-0.268 -5.074,-2.27 -5.652,1.287 -5.652,1.287 l -0.011,-0.016 c -0.731,2.559 -2.412,4.85 -4.894,6.285 -5.102,2.936 -11.621,1.199 -14.562,-3.896 -2.946,-5.105 -1.195,-11.631 3.901,-14.566 1.675,-0.967 3.503,-1.42 5.303,-1.42 0.873,0 1.741,0.105 2.581,0.312 0,0 0.039,0.01 0.104,0.037 0.038,0.006 0.076,0.018 0.114,0.018 0.758,0.18 3.225,0.365 3.716,-4.256 -0.197,-6.984 3.344,-13.863 9.826,-17.611 5.025,-2.892 10.792,-3.329 15.904,-1.669 1.14,0.294 5.734,0.943 6.58,-7.47 l 0.005,0.021 c 0,-0.026 0,-0.049 0,-0.065 0,-0.027 0,-0.055 0,-0.076 l -0.005,0.021 c -0.862,-8.538 -5.57,-7.736 -6.629,-7.447 -0.055,0.006 -0.109,0.027 -0.164,0.044 -0.033,0.011 -0.049,0.022 -0.049,0.022 -5.046,1.549 -10.704,1.085 -15.642,-1.764 -6.459,-3.726 -10,-10.578 -9.832,-17.54 -0.556,-5.543 -3.934,-4.255 -3.934,-4.255 l 0.005,-0.011 c -2.581,0.639 -5.396,0.333 -7.884,-1.107 -5.096,-2.935 -6.847,-9.466 -3.901,-14.567 2.941,-5.085 9.46,-6.836 14.562,-3.896 2.482,1.43 4.163,3.727 4.894,6.285 l 0.005,-0.011 c 0,0 0.005,0.038 0.021,0.115 0.011,0.033 0.027,0.071 0.033,0.109 0.234,0.742 1.304,2.968 5.548,1.08 5.953,-3.655 13.678,-4.037 20.16,-0.289 5.02,2.908 8.282,7.677 9.406,12.931 0.311,1.146 2.046,5.439 9.75,1.97 l -0.005,0.021 c 0.038,-0.027 0.076,-0.054 0.12,-0.065 h -0.021 c 6.956,-5.014 3.917,-8.691 3.143,-9.466 -0.044,-0.044 -0.087,-0.093 -0.131,-0.12 -0.022,-0.027 -0.039,-0.038 -0.039,-0.038 -3.868,-3.601 -6.296,-8.729 -6.296,-14.425 0,-7.458 4.157,-13.945 10.279,-17.285 4.512,-3.246 1.708,-5.532 1.708,-5.532 h 0.021 c -1.844,-1.915 -2.99,-4.512 -2.99,-7.393 0,-5.881 4.774,-10.655 10.661,-10.655 5.887,0 10.661,4.774 10.661,10.655 0,2.88 -1.146,5.478 -2.99,7.393 h 0.011 c 0,0 -0.038,0.027 -0.098,0.077 -0.017,0.027 -0.033,0.043 -0.049,0.06 -0.507,0.535 -1.997,2.597 1.817,5.369 6.149,3.317 10.328,9.826 10.328,17.312 0,5.789 -2.504,11.004 -6.493,14.605 -0.829,0.834 -3.693,4.49 3.165,9.444 h -0.016 c 0.043,0.011 0.082,0.038 0.125,0.065 l -0.011,-0.021 c 7.796,3.508 9.477,-0.928 9.761,-2.008 0.016,-0.065 0.033,-0.12 0.049,-0.191 0,-0.011 0.005,-0.033 0.005,-0.033 1.178,-5.15 4.408,-9.815 9.346,-12.658 6.46,-3.737 14.158,-3.377 20.105,0.251 5.074,2.275 5.647,-1.288 5.647,-1.288 l 0.011,0.021 c 0.737,-2.559 2.412,-4.855 4.899,-6.285 5.096,-2.94 11.616,-1.189 14.562,3.907 2.941,5.09 1.195,11.621 -3.9,14.556 -2.488,1.44 -5.309,1.746 -7.889,1.107 z"
   id="path24" />
			<path
   fill="#d11242"
   d="m 181.67,172.924 c 5.101,2.936 11.616,1.189 14.562,-3.906 2.941,-5.096 1.195,-11.621 -3.901,-14.561 -5.101,-2.947 -11.621,-1.195 -14.562,3.895 -2.946,5.107 -1.195,11.621 3.901,14.572 z"
   id="path25" />
			<path
   fill="#d11242"
   d="m 181.67,101.976 c -5.096,2.946 -6.847,9.466 -3.901,14.567 2.946,5.09 9.46,6.847 14.562,3.896 5.096,-2.936 6.842,-9.455 3.901,-14.557 -2.946,-5.095 -9.466,-6.841 -14.562,-3.906 z"
   id="path26" />
		</g>
	</g>
</g></g><g
       id="g55"><path
         fill="#009fc2"
         d="m 767.73711,117.80943 c -0.0903,-4.29524 1.35706,-7.99898 4.34113,-11.11022 2.98312,-3.11024 6.62277,-4.71102 10.91605,-4.80128 l 2.59616,-0.0548 c 1.73339,-0.0362 2.57991,-0.92034 2.5435,-2.652736 l -0.49142,-23.375281 10.38859,-0.218109 1.20136,57.140086 c 0.0305,1.45299 -0.44558,2.693 -1.42939,3.71906 -0.98187,1.02504 -2.20074,1.55385 -3.65667,1.58446 l -10.38859,0.21811 c -4.29425,0.0903 -7.99704,-1.35808 -11.10824,-4.34019 -3.11222,-2.98406 -4.71393,-6.62173 -4.80422,-10.91599 l -0.10953,-5.1933 z m 10.39055,-0.21815 0.10954,5.1933 c 0.0305,1.45299 0.55836,2.67189 1.58443,3.65569 1.0241,0.98385 2.26607,1.45994 3.72003,1.42938 l 2.59617,-0.0548 c 1.73339,-0.0362 2.57992,-0.92035 2.54356,-2.64982 l -0.21815,-10.39053 c -0.0362,-1.73143 -0.92033,-2.57894 -2.65274,-2.54253 l -2.59616,0.0548 c -1.45299,0.0305 -2.67385,0.55842 -3.65669,1.58348 -0.98479,1.02609 -1.45997,2.26411 -1.42935,3.72102 z"
         id="path27"
         style="stroke-width:0.980641" /><path
         fill="#009fc2"
         d="m 696.56993,115.07559 c 0,4.29619 -1.52686,7.96771 -4.57371,11.01652 -3.04685,3.04685 -6.71935,4.57077 -11.01456,4.57077 -4.29422,0 -7.96771,-1.52392 -11.01456,-4.57077 -3.04685,-3.04881 -4.57174,-6.72131 -4.57174,-11.01652 V 68.314722 h 10.39283 v 46.761858 c 0,1.45429 0.50209,2.68401 1.50528,3.68917 1.00516,1.00319 2.23488,1.50626 3.68917,1.50626 1.45429,0 2.685,-0.50307 3.68917,-1.50626 1.00516,-1.00418 1.50725,-2.2339 1.50725,-3.68917 V 68.314722 h 10.39283 v 46.760868 z"
         id="path28"
         style="stroke-width:0.980641" /><path
         fill="#009fc2"
         d="M 750.82122,130.66386 H 740.43035 V 81.303312 c 0,-1.73083 -0.86591,-2.59576 -2.59674,-2.59576 h -2.5987 c -1.45331,0 -2.68303,0.50209 -3.68917,1.50725 -1.00319,1.00417 -1.50724,2.2339 -1.50724,3.68819 V 130.66484 H 719.64763 V 83.902012 c 0,-1.45331 -0.50209,-2.68304 -1.50725,-3.68819 -1.00319,-1.00516 -2.23488,-1.50725 -3.68917,-1.50725 h -2.59673 c -1.73378,0 -2.5987,0.86591 -2.5987,2.59576 V 130.66288 H 698.86491 V 68.313742 h 15.58728 c 3.94708,0 7.41267,1.317 10.39283,3.94806 2.97821,-2.63204 6.44085,-3.94806 10.39087,-3.94806 h 15.58729 v 62.350118 z"
         id="path29"
         style="stroke-width:0.980641" /><path
         fill="#009fc2"
         d="m 784.79068,89.096462 c 0,4.29619 -1.5249,7.96869 -4.57371,11.016518 -3.04685,3.04685 -6.71935,4.57077 -11.01259,4.57077 h -2.59674 c -1.73377,0 -2.5987,0.8659 -2.5987,2.59869 v 23.38044 H 753.61807 V 73.510162 c 0,-1.45331 0.50209,-2.68304 1.50725,-3.68819 1.00319,-1.00418 2.23292,-1.50725 3.68917,-1.50725 h 10.39087 c 4.29422,0 7.96574,1.52588 11.01259,4.57273 3.04881,3.04881 4.57371,6.71935 4.57371,11.01456 v 5.19445 z m -10.39087,0 v -5.19445 c 0,-1.45331 -0.50405,-2.68304 -1.50724,-3.68819 -1.00516,-1.00516 -2.23489,-1.50725 -3.68918,-1.50725 h -2.59673 c -1.73377,0 -2.5987,0.86591 -2.5987,2.59576 v 10.39283 c 0,1.73181 0.86591,2.59772 2.5987,2.59772 h 2.59673 c 1.45331,0 2.68304,-0.50209 3.68918,-1.50627 1.00319,-1.00516 1.50724,-2.23292 1.50724,-3.69015 z"
         id="path30"
         style="stroke-width:0.980641" /><path
         fill="#009fc2"
         d="m 767.40741,197.40455 h -10.39087 v -62.34914 h 10.39087 z"
         id="path31"
         style="stroke-width:0.980641" /><path
         fill="#009fc2"
         d="m 833.63487,130.66386 h -10.39086 l -8.93658,-26.80876 c -0.41776,-1.24835 -0.76196,-1.87302 -1.04046,-1.87302 -0.20692,0 -0.34715,0.59133 -0.4158,1.76908 v 26.9127 H 802.46031 V 68.314722 h 10.39086 l 9.1435,27.32948 c 0.27752,0.90023 0.55504,1.35132 0.83354,1.35132 0.27556,0 0.4158,-0.51876 0.4158,-1.55824 v -27.12256 h 10.39086 z"
         id="path32"
         style="stroke-width:0.980641" /><path
         fill="#009fc2"
         d="m 867.15939,115.07559 c 0,4.29619 -1.5249,7.96771 -4.57175,11.01652 -3.04881,3.04685 -6.72131,4.57077 -11.01456,4.57077 -4.29618,0 -7.9677,-1.52392 -11.01455,-4.57077 -3.04882,-3.04881 -4.57371,-6.72131 -4.57371,-11.01652 V 83.902012 c 0,-4.29619 1.52489,-7.96575 4.57371,-11.01456 3.04685,-3.04685 6.71935,-4.57273 11.01455,-4.57273 4.29423,0 7.96575,1.52588 11.01456,4.57273 3.04685,3.04881 4.57175,6.71935 4.57175,11.01456 h -10.39087 c 0,-1.45331 -0.50405,-2.68304 -1.50725,-3.68819 -1.00515,-1.00516 -2.23488,-1.50725 -3.68917,-1.50725 -1.45527,0 -2.68499,0.50209 -3.68917,1.50725 -1.00515,1.00417 -1.50724,2.2339 -1.50724,3.68819 v 31.173578 c 0,1.4543 0.50405,2.68402 1.51313,3.68918 1.00515,1.00319 2.24076,1.50626 3.69995,1.50626 1.4592,0 2.69284,-0.50307 3.70192,-1.50626 1.00516,-1.00418 1.51117,-2.2339 1.51117,-3.68918 0,-1.03849 0.0343,-2.28685 0.10297,-3.74114 0.0686,-1.45135 0.10493,-2.38982 0.10493,-2.80463 0,-1.5249 -0.35009,-2.54378 -1.04733,-3.0645 -0.69723,-0.51974 -2.16035,-0.78059 -4.39229,-0.78059 V 94.293862 h 15.58729 v 20.781728 z"
         id="path33"
         style="stroke-width:0.980641" /><path
         fill="#009fc2"
         d="m 659.70422,191.00442 c 0,4.29619 -1.5249,7.96771 -4.57371,11.01652 -3.04783,3.04685 -6.72033,4.56978 -11.01456,4.56978 -4.29423,0 -7.96673,-1.52293 -11.01456,-4.56978 -3.04783,-3.04881 -4.57174,-6.72131 -4.57174,-11.01652 h 10.39087 c 0,1.45527 0.50404,2.68303 1.50724,3.68917 1.00418,1.0032 2.2339,1.50724 3.68917,1.50724 2.56242,0 4.19224,-1.21011 4.88359,-3.63719 0.2079,-0.90219 0.31185,-3.15276 0.31185,-6.75367 0,-1.45331 -0.50209,-2.685 -1.50725,-3.69016 -1.00319,-1.00319 -2.23488,-1.50724 -3.68917,-1.50724 -4.29423,0 -7.96673,-1.52294 -11.01456,-4.56979 -3.04783,-3.04685 -4.57174,-6.72131 -4.57174,-11.01651 v -5.19446 c 0,-4.29619 1.52391,-7.96476 4.57174,-11.01455 3.04783,-3.04686 6.72132,-4.57273 11.01456,-4.57273 4.29521,0 7.96673,1.52587 11.01456,4.57273 3.04881,3.04979 4.57371,6.71935 4.57371,11.01455 h -10.39284 c 0,-1.45331 -0.50208,-2.68303 -1.50724,-3.68819 -1.0032,-1.00515 -2.23488,-1.50724 -3.68917,-1.50724 -2.56241,0 -4.19028,1.21011 -4.88359,3.63621 -0.20692,0.90121 -0.31185,3.15276 -0.31185,6.75368 0,1.45527 0.50405,2.68499 1.50725,3.69113 1.00418,1.00319 2.2339,1.50528 3.68917,1.50528 4.29521,0 7.96673,1.5249 11.01456,4.57175 3.04881,3.04881 4.57371,6.72131 4.57371,11.01652 z"
         id="path34"
         style="stroke-width:0.980641" /><path
         fill="#009fc2"
         d="m 682.63211,143.06702 h -7.79512 c -1.73181,0 -2.59673,0.8659 -2.59673,2.59575 v 49.35957 h -10.39087 v -49.35957 c 0,-1.73083 -0.86787,-2.59575 -2.5987,-2.59575 h -7.79315 v -10.39185 h 31.17555 v 10.39185 z"
         id="path35"
         style="stroke-width:0.980641" /><path
         fill="#009fc2"
         d="m 706.09274,205.25689 h -10.39087 v -23.38043 c 0,-1.73083 -0.86786,-2.5987 -2.59869,-2.5987 h -5.19446 c -1.73377,0 -2.5987,0.86787 -2.5987,2.5987 v 23.38043 h -10.39086 v -46.76087 c 0,-4.29619 1.52489,-7.96476 4.57174,-11.01456 3.04881,-3.04685 6.72131,-4.57272 11.01456,-4.57272 4.29619,0 7.96771,1.52587 11.01456,4.57272 3.04881,3.0498 4.57174,6.71935 4.57174,11.01456 v 46.76087 z m -10.38988,-38.96674 v -7.79413 c 0,-1.45331 -0.50209,-2.68303 -1.50725,-3.68819 -1.0032,-1.00516 -2.23488,-1.50724 -3.68917,-1.50724 -1.45527,0 -2.68303,0.50208 -3.68917,1.50724 -1.0032,1.00418 -1.50725,2.2339 -1.50725,3.68819 v 7.79413 c 0,1.73182 0.86591,2.59674 2.5987,2.59674 h 5.19446 c 1.73181,0 2.59968,-0.86492 2.59968,-2.59674 z"
         id="path36"
         style="stroke-width:0.980641" /><path
         fill="#009fc2"
         d="m 728.75723,142.17714 h -7.79316 c -1.73377,0 -2.59673,0.8659 -2.59673,2.59575 v 49.35957 h -10.39283 v -49.35957 c 0,-1.73083 -0.86591,-2.59575 -2.59674,-2.59575 h -7.79315 v -10.39185 h 31.17359 v 10.39185 z"
         id="path37"
         style="stroke-width:0.980641" /><path
         fill="#009fc2"
         d="m 783.49623,202.63133 h -10.39087 v -62.34815 h 10.39087 z"
         id="path38"
         style="stroke-width:0.980641" /><path
         fill="#009fc2"
         d="m 752.68588,188.77973 c 0,4.29619 -1.5249,7.96771 -4.57175,11.01652 -3.04881,3.04685 -6.72131,4.56978 -11.01455,4.56978 -4.29619,0 -7.96771,-1.52293 -11.01456,-4.56978 -3.04881,-3.04881 -4.57175,-6.72131 -4.57175,-11.01652 v -31.17359 c 0,-4.29619 1.52294,-7.96476 4.57175,-11.01456 3.04685,-3.04685 6.71935,-4.57272 11.01456,-4.57272 4.29422,0 7.96574,1.52587 11.01455,4.57272 3.04685,3.0498 4.57175,6.71935 4.57175,11.01456 z m -10.39087,0 v -31.17359 c 0,-1.45331 -0.50405,-2.68303 -1.50724,-3.68819 -1.00516,-1.00516 -2.23488,-1.50724 -3.68917,-1.50724 -1.45527,0 -2.68304,0.50208 -3.68917,1.50724 -1.00516,1.00418 -1.50725,2.2339 -1.50725,3.68819 v 31.17359 c 0,1.45527 0.50209,2.68303 1.50725,3.68917 1.00515,1.0032 2.23291,1.50724 3.68917,1.50724 1.45331,0 2.68303,-0.50404 3.68917,-1.50724 1.00319,-1.00516 1.50724,-2.23292 1.50724,-3.68917 z"
         id="path39"
         style="stroke-width:0.980641" /><path
         fill="#009fc2"
         d="m 853.55162,194.49278 h -10.39086 l -8.93658,-26.80777 c -0.4158,-1.24836 -0.76196,-1.87303 -1.04046,-1.87303 -0.20692,0 -0.34715,0.59231 -0.4158,1.7681 v 26.91368 h -10.39086 v -62.34913 h 10.39086 l 9.14546,27.32947 c 0.27556,0.90219 0.55308,1.35231 0.82962,1.35231 0.27752,0 0.41776,-0.51876 0.41776,-1.55922 v -27.12256 h 10.39086 z"
         id="path40"
         style="stroke-width:0.980641" /><path
         style="fill:#009fc2;fill-opacity:1;stroke-width:0.980641"
         d="m 880.58642,127.9041 h -10.39087 v -13.33279 h 10.39087 z"
         id="path55" /><path
         style="fill:#009fc2;fill-opacity:1;stroke-width:0.980641"
         d="M 880.5695,112.45603 H 870.17863 V 99.121272 h 10.39087 z"
         id="path41" /><path
         fill="#009fc2"
         d="m 789.38419,152.70069 c 0.0772,-4.29548 1.66788,-7.939 4.77097,-10.93055 3.10214,-2.99353 6.80142,-4.45021 11.09496,-4.37302 4.29353,0.0772 7.93806,1.6659 10.93059,4.769 2.99257,3.10115 4.45022,6.80045 4.37301,11.09497 l -0.56036,31.16854 c -0.0772,4.29549 -1.66685,7.93707 -4.769,10.9306 -3.10211,2.99156 -6.80245,4.45215 -11.09499,4.37498 -4.29452,-0.0772 -7.938,-1.66983 -10.93057,-4.77097 -2.99351,-3.10312 -4.45218,-6.80049 -4.37498,-11.095 z m 10.39116,0.18683 -0.56036,31.16854 c -0.0262,1.45504 0.45373,2.69359 1.44068,3.71567 0.98496,1.02303 2.20742,1.54718 3.66148,1.57332 1.45405,0.0261 2.6926,-0.45376 3.71567,-1.44069 1.02106,-0.98499 1.54714,-2.20546 1.57332,-3.66148 l 0.56037,-31.16854 c 0.0261,-1.45308 -0.45575,-2.69167 -1.44074,-3.71372 -0.98594,-1.02304 -2.20644,-1.54716 -3.66148,-1.57332 -1.45307,-0.0261 -2.69358,0.45375 -3.71566,1.4407 -1.02403,0.98592 -1.54716,2.20644 -1.57328,3.65952 z"
         id="path42"
         style="stroke-width:0.980641" /><path
         fill="#009fc2"
         d="m 886.86262,194.2309 h -10.39283 l -8.93658,-26.80876 c -0.41579,-1.24835 -0.76196,-1.87302 -1.0385,-1.87302 -0.20888,0 -0.34813,0.59034 -0.41579,1.76809 v 26.91369 h -10.39283 v -62.34914 h 10.39283 l 9.14349,27.32948 c 0.27556,0.90023 0.55308,1.3523 0.83159,1.3523 0.27556,0 0.41579,-0.51876 0.41579,-1.55922 v -27.12256 h 10.39283 z"
         id="path43"
         style="stroke-width:0.980641" /><path
         fill="#009fc2"
         d="m 663.96074,79.03526 h -18.18402 c -1.73378,0 -2.5987,0.86591 -2.5987,2.59674 v 10.39087 c 0,1.73377 0.86591,2.5987 2.5987,2.5987 h 12.98956 v 10.39086 h -12.98956 c -1.73378,0 -2.5987,0.86591 -2.5987,2.59674 V 118.002 c 0,1.73377 0.86591,2.59674 2.5987,2.59674 h 18.18402 v 10.39283 h -25.97717 c -1.45527,0 -2.685,-0.50209 -3.68917,-1.50725 -1.00516,-1.00515 -1.50725,-2.23292 -1.50725,-3.68721 V 73.83885 c 0,-1.45331 0.50209,-2.685 1.50725,-3.68917 1.00319,-1.0032 2.23291,-1.50725 3.68917,-1.50725 h 25.97717 z"
         id="path44"
         style="stroke-width:0.980641" /></g><g
       id="g74"
       transform="rotate(180,757.69615,205.52773)"><path
         fill="#009fc2"
         d="m 767.73711,117.80943 c -0.0903,-4.29524 1.35706,-7.99898 4.34113,-11.11022 2.98312,-3.11024 6.62277,-4.71102 10.91605,-4.80128 l 2.59616,-0.0548 c 1.73339,-0.0362 2.57991,-0.92034 2.5435,-2.652736 l -0.49142,-23.375281 10.38859,-0.218109 1.20136,57.140086 c 0.0305,1.45299 -0.44558,2.693 -1.42939,3.71906 -0.98187,1.02504 -2.20074,1.55385 -3.65667,1.58446 l -10.38859,0.21811 c -4.29425,0.0903 -7.99704,-1.35808 -11.10824,-4.34019 -3.11222,-2.98406 -4.71393,-6.62173 -4.80422,-10.91599 l -0.10953,-5.1933 z m 10.39055,-0.21815 0.10954,5.1933 c 0.0305,1.45299 0.55836,2.67189 1.58443,3.65569 1.0241,0.98385 2.26607,1.45994 3.72003,1.42938 l 2.59617,-0.0548 c 1.73339,-0.0362 2.57992,-0.92035 2.54356,-2.64982 l -0.21815,-10.39053 c -0.0362,-1.73143 -0.92033,-2.57894 -2.65274,-2.54253 l -2.59616,0.0548 c -1.45299,0.0305 -2.67385,0.55842 -3.65669,1.58348 -0.98479,1.02609 -1.45997,2.26411 -1.42935,3.72102 z"
         id="path56"
         style="stroke-width:0.980641" /><path
         fill="#009fc2"
         d="m 696.56993,115.07559 c 0,4.29619 -1.52686,7.96771 -4.57371,11.01652 -3.04685,3.04685 -6.71935,4.57077 -11.01456,4.57077 -4.29422,0 -7.96771,-1.52392 -11.01456,-4.57077 -3.04685,-3.04881 -4.57174,-6.72131 -4.57174,-11.01652 V 68.314722 h 10.39283 v 46.761858 c 0,1.45429 0.50209,2.68401 1.50528,3.68917 1.00516,1.00319 2.23488,1.50626 3.68917,1.50626 1.45429,0 2.685,-0.50307 3.68917,-1.50626 1.00516,-1.00418 1.50725,-2.2339 1.50725,-3.68917 V 68.314722 h 10.39283 v 46.760868 z"
         id="path57"
         style="stroke-width:0.980641" /><path
         fill="#009fc2"
         d="M 750.82122,130.66386 H 740.43035 V 81.303312 c 0,-1.73083 -0.86591,-2.59576 -2.59674,-2.59576 h -2.5987 c -1.45331,0 -2.68303,0.50209 -3.68917,1.50725 -1.00319,1.00417 -1.50724,2.2339 -1.50724,3.68819 V 130.66484 H 719.64763 V 83.902012 c 0,-1.45331 -0.50209,-2.68304 -1.50725,-3.68819 -1.00319,-1.00516 -2.23488,-1.50725 -3.68917,-1.50725 h -2.59673 c -1.73378,0 -2.5987,0.86591 -2.5987,2.59576 V 130.66288 H 698.86491 V 68.313742 h 15.58728 c 3.94708,0 7.41267,1.317 10.39283,3.94806 2.97821,-2.63204 6.44085,-3.94806 10.39087,-3.94806 h 15.58729 v 62.350118 z"
         id="path58"
         style="stroke-width:0.980641" /><path
         fill="#009fc2"
         d="m 784.79068,89.096462 c 0,4.29619 -1.5249,7.96869 -4.57371,11.016518 -3.04685,3.04685 -6.71935,4.57077 -11.01259,4.57077 h -2.59674 c -1.73377,0 -2.5987,0.8659 -2.5987,2.59869 v 23.38044 H 753.61807 V 73.510162 c 0,-1.45331 0.50209,-2.68304 1.50725,-3.68819 1.00319,-1.00418 2.23292,-1.50725 3.68917,-1.50725 h 10.39087 c 4.29422,0 7.96574,1.52588 11.01259,4.57273 3.04881,3.04881 4.57371,6.71935 4.57371,11.01456 v 5.19445 z m -10.39087,0 v -5.19445 c 0,-1.45331 -0.50405,-2.68304 -1.50724,-3.68819 -1.00516,-1.00516 -2.23489,-1.50725 -3.68918,-1.50725 h -2.59673 c -1.73377,0 -2.5987,0.86591 -2.5987,2.59576 v 10.39283 c 0,1.73181 0.86591,2.59772 2.5987,2.59772 h 2.59673 c 1.45331,0 2.68304,-0.50209 3.68918,-1.50627 1.00319,-1.00516 1.50724,-2.23292 1.50724,-3.69015 z"
         id="path59"
         style="stroke-width:0.980641" /><path
         fill="#009fc2"
         d="m 767.40741,197.40455 h -10.39087 v -62.34914 h 10.39087 z"
         id="path60"
         style="stroke-width:0.980641" /><path
         fill="#009fc2"
         d="m 833.63487,130.66386 h -10.39086 l -8.93658,-26.80876 c -0.41776,-1.24835 -0.76196,-1.87302 -1.04046,-1.87302 -0.20692,0 -0.34715,0.59133 -0.4158,1.76908 v 26.9127 H 802.46031 V 68.314722 h 10.39086 l 9.1435,27.32948 c 0.27752,0.90023 0.55504,1.35132 0.83354,1.35132 0.27556,0 0.4158,-0.51876 0.4158,-1.55824 v -27.12256 h 10.39086 z"
         id="path61"
         style="stroke-width:0.980641" /><path
         fill="#009fc2"
         d="m 867.15939,115.07559 c 0,4.29619 -1.5249,7.96771 -4.57175,11.01652 -3.04881,3.04685 -6.72131,4.57077 -11.01456,4.57077 -4.29618,0 -7.9677,-1.52392 -11.01455,-4.57077 -3.04882,-3.04881 -4.57371,-6.72131 -4.57371,-11.01652 V 83.902012 c 0,-4.29619 1.52489,-7.96575 4.57371,-11.01456 3.04685,-3.04685 6.71935,-4.57273 11.01455,-4.57273 4.29423,0 7.96575,1.52588 11.01456,4.57273 3.04685,3.04881 4.57175,6.71935 4.57175,11.01456 h -10.39087 c 0,-1.45331 -0.50405,-2.68304 -1.50725,-3.68819 -1.00515,-1.00516 -2.23488,-1.50725 -3.68917,-1.50725 -1.45527,0 -2.68499,0.50209 -3.68917,1.50725 -1.00515,1.00417 -1.50724,2.2339 -1.50724,3.68819 v 31.173578 c 0,1.4543 0.50405,2.68402 1.51313,3.68918 1.00515,1.00319 2.24076,1.50626 3.69995,1.50626 1.4592,0 2.69284,-0.50307 3.70192,-1.50626 1.00516,-1.00418 1.51117,-2.2339 1.51117,-3.68918 0,-1.03849 0.0343,-2.28685 0.10297,-3.74114 0.0686,-1.45135 0.10493,-2.38982 0.10493,-2.80463 0,-1.5249 -0.35009,-2.54378 -1.04733,-3.0645 -0.69723,-0.51974 -2.16035,-0.78059 -4.39229,-0.78059 V 94.293862 h 15.58729 v 20.781728 z"
         id="path62"
         style="stroke-width:0.980641" /><path
         fill="#009fc2"
         d="m 659.70422,191.00442 c 0,4.29619 -1.5249,7.96771 -4.57371,11.01652 -3.04783,3.04685 -6.72033,4.56978 -11.01456,4.56978 -4.29423,0 -7.96673,-1.52293 -11.01456,-4.56978 -3.04783,-3.04881 -4.57174,-6.72131 -4.57174,-11.01652 h 10.39087 c 0,1.45527 0.50404,2.68303 1.50724,3.68917 1.00418,1.0032 2.2339,1.50724 3.68917,1.50724 2.56242,0 4.19224,-1.21011 4.88359,-3.63719 0.2079,-0.90219 0.31185,-3.15276 0.31185,-6.75367 0,-1.45331 -0.50209,-2.685 -1.50725,-3.69016 -1.00319,-1.00319 -2.23488,-1.50724 -3.68917,-1.50724 -4.29423,0 -7.96673,-1.52294 -11.01456,-4.56979 -3.04783,-3.04685 -4.57174,-6.72131 -4.57174,-11.01651 v -5.19446 c 0,-4.29619 1.52391,-7.96476 4.57174,-11.01455 3.04783,-3.04686 6.72132,-4.57273 11.01456,-4.57273 4.29521,0 7.96673,1.52587 11.01456,4.57273 3.04881,3.04979 4.57371,6.71935 4.57371,11.01455 h -10.39284 c 0,-1.45331 -0.50208,-2.68303 -1.50724,-3.68819 -1.0032,-1.00515 -2.23488,-1.50724 -3.68917,-1.50724 -2.56241,0 -4.19028,1.21011 -4.88359,3.63621 -0.20692,0.90121 -0.31185,3.15276 -0.31185,6.75368 0,1.45527 0.50405,2.68499 1.50725,3.69113 1.00418,1.00319 2.2339,1.50528 3.68917,1.50528 4.29521,0 7.96673,1.5249 11.01456,4.57175 3.04881,3.04881 4.57371,6.72131 4.57371,11.01652 z"
         id="path63"
         style="stroke-width:0.980641" /><path
         fill="#009fc2"
         d="m 682.63211,143.06702 h -7.79512 c -1.73181,0 -2.59673,0.8659 -2.59673,2.59575 v 49.35957 h -10.39087 v -49.35957 c 0,-1.73083 -0.86787,-2.59575 -2.5987,-2.59575 h -7.79315 v -10.39185 h 31.17555 v 10.39185 z"
         id="path64"
         style="stroke-width:0.980641" /><path
         fill="#009fc2"
         d="m 706.09274,205.25689 h -10.39087 v -23.38043 c 0,-1.73083 -0.86786,-2.5987 -2.59869,-2.5987 h -5.19446 c -1.73377,0 -2.5987,0.86787 -2.5987,2.5987 v 23.38043 h -10.39086 v -46.76087 c 0,-4.29619 1.52489,-7.96476 4.57174,-11.01456 3.04881,-3.04685 6.72131,-4.57272 11.01456,-4.57272 4.29619,0 7.96771,1.52587 11.01456,4.57272 3.04881,3.0498 4.57174,6.71935 4.57174,11.01456 v 46.76087 z m -10.38988,-38.96674 v -7.79413 c 0,-1.45331 -0.50209,-2.68303 -1.50725,-3.68819 -1.0032,-1.00516 -2.23488,-1.50724 -3.68917,-1.50724 -1.45527,0 -2.68303,0.50208 -3.68917,1.50724 -1.0032,1.00418 -1.50725,2.2339 -1.50725,3.68819 v 7.79413 c 0,1.73182 0.86591,2.59674 2.5987,2.59674 h 5.19446 c 1.73181,0 2.59968,-0.86492 2.59968,-2.59674 z"
         id="path65"
         style="stroke-width:0.980641" /><path
         fill="#009fc2"
         d="m 728.75723,142.17714 h -7.79316 c -1.73377,0 -2.59673,0.8659 -2.59673,2.59575 v 49.35957 h -10.39283 v -49.35957 c 0,-1.73083 -0.86591,-2.59575 -2.59674,-2.59575 h -7.79315 v -10.39185 h 31.17359 v 10.39185 z"
         id="path66"
         style="stroke-width:0.980641" /><path
         fill="#009fc2"
         d="m 783.49623,202.63133 h -10.39087 v -62.34815 h 10.39087 z"
         id="path67"
         style="stroke-width:0.980641" /><path
         fill="#009fc2"
         d="m 752.68588,188.77973 c 0,4.29619 -1.5249,7.96771 -4.57175,11.01652 -3.04881,3.04685 -6.72131,4.56978 -11.01455,4.56978 -4.29619,0 -7.96771,-1.52293 -11.01456,-4.56978 -3.04881,-3.04881 -4.57175,-6.72131 -4.57175,-11.01652 v -31.17359 c 0,-4.29619 1.52294,-7.96476 4.57175,-11.01456 3.04685,-3.04685 6.71935,-4.57272 11.01456,-4.57272 4.29422,0 7.96574,1.52587 11.01455,4.57272 3.04685,3.0498 4.57175,6.71935 4.57175,11.01456 z m -10.39087,0 v -31.17359 c 0,-1.45331 -0.50405,-2.68303 -1.50724,-3.68819 -1.00516,-1.00516 -2.23488,-1.50724 -3.68917,-1.50724 -1.45527,0 -2.68304,0.50208 -3.68917,1.50724 -1.00516,1.00418 -1.50725,2.2339 -1.50725,3.68819 v 31.17359 c 0,1.45527 0.50209,2.68303 1.50725,3.68917 1.00515,1.0032 2.23291,1.50724 3.68917,1.50724 1.45331,0 2.68303,-0.50404 3.68917,-1.50724 1.00319,-1.00516 1.50724,-2.23292 1.50724,-3.68917 z"
         id="path68"
         style="stroke-width:0.980641" /><path
         fill="#009fc2"
         d="m 853.55162,194.49278 h -10.39086 l -8.93658,-26.80777 c -0.4158,-1.24836 -0.76196,-1.87303 -1.04046,-1.87303 -0.20692,0 -0.34715,0.59231 -0.4158,1.7681 v 26.91368 h -10.39086 v -62.34913 h 10.39086 l 9.14546,27.32947 c 0.27556,0.90219 0.55308,1.35231 0.82962,1.35231 0.27752,0 0.41776,-0.51876 0.41776,-1.55922 v -27.12256 h 10.39086 z"
         id="path69"
         style="stroke-width:0.980641" /><path
         style="fill:#009fc2;fill-opacity:1;stroke-width:0.980641"
         d="m 880.58642,127.9041 h -10.39087 v -13.33279 h 10.39087 z"
         id="path70" /><path
         style="fill:#009fc2;fill-opacity:1;stroke-width:0.980641"
         d="M 880.5695,112.45603 H 870.17863 V 99.121272 h 10.39087 z"
         id="path71" /><path
         fill="#009fc2"
         d="m 789.38419,152.70069 c 0.0772,-4.29548 1.66788,-7.939 4.77097,-10.93055 3.10214,-2.99353 6.80142,-4.45021 11.09496,-4.37302 4.29353,0.0772 7.93806,1.6659 10.93059,4.769 2.99257,3.10115 4.45022,6.80045 4.37301,11.09497 l -0.56036,31.16854 c -0.0772,4.29549 -1.66685,7.93707 -4.769,10.9306 -3.10211,2.99156 -6.80245,4.45215 -11.09499,4.37498 -4.29452,-0.0772 -7.938,-1.66983 -10.93057,-4.77097 -2.99351,-3.10312 -4.45218,-6.80049 -4.37498,-11.095 z m 10.39116,0.18683 -0.56036,31.16854 c -0.0262,1.45504 0.45373,2.69359 1.44068,3.71567 0.98496,1.02303 2.20742,1.54718 3.66148,1.57332 1.45405,0.0261 2.6926,-0.45376 3.71567,-1.44069 1.02106,-0.98499 1.54714,-2.20546 1.57332,-3.66148 l 0.56037,-31.16854 c 0.0261,-1.45308 -0.45575,-2.69167 -1.44074,-3.71372 -0.98594,-1.02304 -2.20644,-1.54716 -3.66148,-1.57332 -1.45307,-0.0261 -2.69358,0.45375 -3.71566,1.4407 -1.02403,0.98592 -1.54716,2.20644 -1.57328,3.65952 z"
         id="path72"
         style="stroke-width:0.980641" /><path
         fill="#009fc2"
         d="m 886.86262,194.2309 h -10.39283 l -8.93658,-26.80876 c -0.41579,-1.24835 -0.76196,-1.87302 -1.0385,-1.87302 -0.20888,0 -0.34813,0.59034 -0.41579,1.76809 v 26.91369 h -10.39283 v -62.34914 h 10.39283 l 9.14349,27.32948 c 0.27556,0.90023 0.55308,1.3523 0.83159,1.3523 0.27556,0 0.41579,-0.51876 0.41579,-1.55922 v -27.12256 h 10.39283 z"
         id="path73"
         style="stroke-width:0.980641" /><path
         fill="#009fc2"
         d="m 663.96074,79.03526 h -18.18402 c -1.73378,0 -2.5987,0.86591 -2.5987,2.59674 v 10.39087 c 0,1.73377 0.86591,2.5987 2.5987,2.5987 h 12.98956 v 10.39086 h -12.98956 c -1.73378,0 -2.5987,0.86591 -2.5987,2.59674 V 118.002 c 0,1.73377 0.86591,2.59674 2.5987,2.59674 h 18.18402 v 10.39283 h -25.97717 c -1.45527,0 -2.685,-0.50209 -3.68917,-1.50725 -1.00516,-1.00515 -1.50725,-2.23292 -1.50725,-3.68721 V 73.83885 c 0,-1.45331 0.50209,-2.685 1.50725,-3.68917 1.00319,-1.0032 2.23291,-1.50725 3.68917,-1.50725 h 25.97717 z"
         id="path74"
         style="stroke-width:0.980641" /></g><g
       id="g103"
       transform="translate(0,294.54893)"><rect
         style="opacity:1;fill:#550000;stroke:#000000;stroke-width:0.429033"
         id="rect74"
         width="498.08124"
         height="226.442"
         x="4.7420492"
         y="25.91678"
         rx="5.9000001"
         ry="5" /><g
         id="g102"
         transform="matrix(0.98064073,0,0,0.98064073,-21.395906,4.1236647)">
	<g
   id="g92">
		<path
   fill="#009fc2"
   d="m 291.098,53.284 c 0,4.381 -1.555,8.126 -4.664,11.234 -3.108,3.107 -6.853,4.661 -11.232,4.661 h -2.648 c -1.768,0 -2.65,0.883 -2.65,2.65 V 95.671 H 259.308 V 37.39 c 0,-1.482 0.512,-2.736 1.537,-3.761 1.023,-1.024 2.277,-1.537 3.762,-1.537 h 10.596 c 4.38,0 8.124,1.556 11.232,4.663 3.109,3.109 4.664,6.852 4.664,11.232 v 5.297 z m -10.598,0 v -5.297 c 0,-1.482 -0.512,-2.736 -1.537,-3.761 -1.023,-1.025 -2.279,-1.537 -3.762,-1.537 h -2.648 c -1.768,0 -2.65,0.883 -2.65,2.647 v 10.598 c 0,1.766 0.883,2.649 2.65,2.649 h 2.648 c 1.482,0 2.738,-0.512 3.762,-1.536 1.026,-1.025 1.537,-2.277 1.537,-3.763 z"
   id="path75" />
		<path
   fill="#009fc2"
   d="m 327.729,79.776 c 0,4.381 -1.557,8.125 -4.664,11.234 -3.107,3.107 -6.852,4.661 -11.232,4.661 -4.379,0 -8.125,-1.554 -11.232,-4.661 -3.107,-3.109 -4.662,-6.854 -4.662,-11.234 V 32.092 h 10.598 v 47.685 c 0,1.483 0.512,2.737 1.535,3.762 1.025,1.023 2.279,1.536 3.762,1.536 1.483,0 2.738,-0.513 3.762,-1.536 1.025,-1.024 1.537,-2.278 1.537,-3.762 V 32.092 h 10.598 v 47.684 z"
   id="path76" />
		<path
   fill="#009fc2"
   d="M 388.551,95.672 H 377.955 V 45.337 c 0,-1.765 -0.883,-2.647 -2.648,-2.647 h -2.65 c -1.482,0 -2.736,0.512 -3.762,1.537 -1.023,1.024 -1.537,2.278 -1.537,3.761 V 95.673 H 356.762 V 47.987 c 0,-1.482 -0.512,-2.736 -1.537,-3.761 -1.023,-1.025 -2.279,-1.537 -3.762,-1.537 h -2.648 c -1.768,0 -2.65,0.883 -2.65,2.647 v 50.335 h -10.596 v -63.58 h 15.895 c 4.025,0 7.559,1.343 10.598,4.026 3.037,-2.684 6.568,-4.026 10.596,-4.026 h 15.895 v 63.581 z"
   id="path77" />
		<path
   fill="#009fc2"
   d="m 428.182,53.284 c 0,4.381 -1.555,8.126 -4.664,11.234 -3.107,3.107 -6.852,4.661 -11.23,4.661 h -2.648 c -1.768,0 -2.65,0.883 -2.65,2.65 V 95.671 H 396.394 V 37.39 c 0,-1.482 0.512,-2.736 1.537,-3.761 1.023,-1.024 2.277,-1.537 3.762,-1.537 h 10.596 c 4.379,0 8.123,1.556 11.23,4.663 3.109,3.109 4.664,6.852 4.664,11.232 v 5.297 z m -10.596,0 v -5.297 c 0,-1.482 -0.514,-2.736 -1.537,-3.761 -1.025,-1.025 -2.279,-1.537 -3.762,-1.537 h -2.648 c -1.768,0 -2.65,0.883 -2.65,2.647 v 10.598 c 0,1.766 0.883,2.649 2.65,2.649 h 2.648 c 1.482,0 2.736,-0.512 3.762,-1.536 1.023,-1.025 1.537,-2.277 1.537,-3.763 z"
   id="path78" />
		<path
   fill="#009fc2"
   d="m 445.619,95.672 h -10.596 v -63.58 h 10.596 z"
   id="path79" />
		<path
   fill="#009fc2"
   d="m 485.25,95.672 h -10.596 l -9.113,-27.338 c -0.426,-1.273 -0.777,-1.91 -1.061,-1.91 -0.211,0 -0.354,0.603 -0.424,1.804 V 95.672 H 453.46 v -63.58 h 10.596 l 9.324,27.869 c 0.283,0.918 0.566,1.378 0.85,1.378 0.281,0 0.424,-0.529 0.424,-1.589 V 32.092 h 10.596 z"
   id="path80" />
		<path
   fill="#009fc2"
   d="m 524.881,79.776 c 0,4.381 -1.555,8.125 -4.662,11.234 -3.109,3.107 -6.854,4.661 -11.232,4.661 -4.381,0 -8.125,-1.554 -11.232,-4.661 -3.109,-3.109 -4.664,-6.854 -4.664,-11.234 V 47.987 c 0,-4.381 1.555,-8.123 4.664,-11.232 3.107,-3.107 6.852,-4.663 11.232,-4.663 4.379,0 8.123,1.556 11.232,4.663 3.107,3.109 4.662,6.852 4.662,11.232 h -10.596 c 0,-1.482 -0.514,-2.736 -1.537,-3.761 -1.025,-1.025 -2.279,-1.537 -3.762,-1.537 -1.484,0 -2.738,0.512 -3.762,1.537 -1.025,1.024 -1.537,2.278 -1.537,3.761 v 31.789 c 0,1.483 0.514,2.737 1.543,3.762 1.025,1.023 2.285,1.536 3.773,1.536 1.488,0 2.746,-0.513 3.775,-1.536 1.025,-1.024 1.541,-2.278 1.541,-3.762 0,-1.059 0.035,-2.332 0.105,-3.815 0.07,-1.48 0.107,-2.437 0.107,-2.86 0,-1.555 -0.357,-2.594 -1.068,-3.125 -0.711,-0.53 -2.203,-0.796 -4.479,-0.796 V 58.584 h 15.895 v 21.192 z"
   id="path81" />
		<path
   fill="#009fc2"
   d="m 291.098,153.574 c 0,4.381 -1.555,8.125 -4.664,11.234 -3.108,3.107 -6.853,4.66 -11.232,4.66 -4.379,0 -8.124,-1.553 -11.232,-4.66 -3.108,-3.109 -4.662,-6.854 -4.662,-11.234 h 10.596 c 0,1.484 0.514,2.736 1.537,3.762 1.024,1.023 2.278,1.537 3.762,1.537 2.613,0 4.275,-1.234 4.98,-3.709 0.212,-0.92 0.318,-3.215 0.318,-6.887 0,-1.482 -0.512,-2.738 -1.537,-3.763 -1.023,-1.023 -2.279,-1.537 -3.762,-1.537 -4.379,0 -8.124,-1.553 -11.232,-4.66 -3.108,-3.107 -4.662,-6.854 -4.662,-11.234 v -5.297 c 0,-4.381 1.554,-8.122 4.662,-11.232 3.108,-3.107 6.854,-4.663 11.232,-4.663 4.38,0 8.124,1.556 11.232,4.663 3.109,3.11 4.664,6.852 4.664,11.232 H 280.5 c 0,-1.482 -0.512,-2.736 -1.537,-3.761 -1.023,-1.025 -2.279,-1.537 -3.762,-1.537 -2.613,0 -4.273,1.234 -4.98,3.708 -0.211,0.919 -0.318,3.215 -0.318,6.887 0,1.484 0.514,2.738 1.537,3.764 1.024,1.023 2.278,1.535 3.762,1.535 4.38,0 8.124,1.555 11.232,4.662 3.109,3.109 4.664,6.854 4.664,11.234 z"
   id="path82" />
		<path
   fill="#009fc2"
   d="m 326.729,116.487 h -7.949 c -1.766,0 -2.648,0.883 -2.648,2.647 v 50.334 h -10.596 v -50.334 c 0,-1.765 -0.885,-2.647 -2.65,-2.647 h -7.947 V 105.89 h 31.791 v 10.597 z"
   id="path83" />
		<path
   fill="#009fc2"
   d="m 363.357,169.469 h -10.596 v -23.842 c 0,-1.765 -0.885,-2.65 -2.65,-2.65 h -5.297 c -1.768,0 -2.65,0.885 -2.65,2.65 v 23.842 h -10.596 v -47.684 c 0,-4.381 1.555,-8.122 4.662,-11.232 3.109,-3.107 6.854,-4.663 11.232,-4.663 4.381,0 8.125,1.556 11.232,4.663 3.109,3.11 4.662,6.852 4.662,11.232 v 47.684 z m -10.595,-39.736 v -7.948 c 0,-1.482 -0.512,-2.736 -1.537,-3.761 -1.023,-1.025 -2.279,-1.537 -3.762,-1.537 -1.484,0 -2.736,0.512 -3.762,1.537 -1.023,1.024 -1.537,2.278 -1.537,3.761 v 7.948 c 0,1.766 0.883,2.648 2.65,2.648 h 5.297 c 1.766,0 2.651,-0.882 2.651,-2.648 z"
   id="path84" />
		<path
   fill="#009fc2"
   d="m 400.988,116.487 h -7.947 c -1.768,0 -2.648,0.883 -2.648,2.647 v 50.334 h -10.598 v -50.334 c 0,-1.765 -0.883,-2.647 -2.648,-2.647 H 369.2 V 105.89 h 31.789 v 10.597 z"
   id="path85" />
		<path
   fill="#009fc2"
   d="M 417.426,169.469 H 406.83 V 105.89 h 10.596 z"
   id="path86" />
		<path
   fill="#009fc2"
   d="m 458.057,153.574 c 0,4.381 -1.555,8.125 -4.662,11.234 -3.109,3.107 -6.854,4.66 -11.232,4.66 -4.381,0 -8.125,-1.553 -11.232,-4.66 -3.109,-3.109 -4.662,-6.854 -4.662,-11.234 v -31.789 c 0,-4.381 1.553,-8.122 4.662,-11.232 3.107,-3.107 6.852,-4.663 11.232,-4.663 4.379,0 8.123,1.556 11.232,4.663 3.107,3.11 4.662,6.852 4.662,11.232 z m -10.596,0 v -31.789 c 0,-1.482 -0.514,-2.736 -1.537,-3.761 -1.025,-1.025 -2.279,-1.537 -3.762,-1.537 -1.484,0 -2.736,0.512 -3.762,1.537 -1.025,1.024 -1.537,2.278 -1.537,3.761 v 31.789 c 0,1.484 0.512,2.736 1.537,3.762 1.025,1.023 2.277,1.537 3.762,1.537 1.482,0 2.736,-0.514 3.762,-1.537 1.023,-1.025 1.537,-2.277 1.537,-3.762 z"
   id="path87" />
		<path
   fill="#009fc2"
   d="m 498.688,169.469 h -10.596 l -9.113,-27.337 c -0.424,-1.273 -0.777,-1.91 -1.061,-1.91 -0.211,0 -0.354,0.604 -0.424,1.803 v 27.445 h -10.596 v -63.58 h 10.596 l 9.326,27.869 c 0.281,0.92 0.564,1.379 0.846,1.379 0.283,0 0.426,-0.529 0.426,-1.59 V 105.89 h 10.596 z"
   id="path88" />
		<path
   fill="#009fc2"
   d="m 519.125,137.68 h -10.596 v -13.598 h 10.596 z m 0,31.789 h -10.596 v -13.596 h 10.596 z"
   id="path89" />
		<path
   fill="#009fc2"
   d="m 291.098,227.373 c 0,4.381 -1.555,8.125 -4.664,11.232 -3.108,3.109 -6.853,4.662 -11.232,4.662 -4.379,0 -8.124,-1.553 -11.232,-4.662 -3.108,-3.107 -4.662,-6.852 -4.662,-11.232 v -31.789 c 0,-4.381 1.554,-8.123 4.662,-11.232 3.108,-3.107 6.854,-4.664 11.232,-4.664 4.38,0 8.124,1.557 11.232,4.664 3.109,3.109 4.664,6.852 4.664,11.232 z m -10.598,0 v -31.789 c 0,-1.484 -0.512,-2.738 -1.537,-3.762 -1.023,-1.025 -2.279,-1.537 -3.762,-1.537 -1.483,0 -2.737,0.512 -3.762,1.537 -1.023,1.023 -1.537,2.277 -1.537,3.762 v 31.789 c 0,1.482 0.514,2.736 1.537,3.76 1.024,1.025 2.278,1.537 3.762,1.537 1.482,0 2.738,-0.512 3.762,-1.537 1.026,-1.024 1.537,-2.278 1.537,-3.76 z"
   id="path90" />
		<path
   fill="#009fc2"
   d="m 330.729,243.268 h -10.598 l -9.113,-27.338 c -0.424,-1.273 -0.777,-1.91 -1.059,-1.91 -0.213,0 -0.355,0.602 -0.424,1.803 v 27.445 h -10.598 v -63.58 h 10.598 l 9.324,27.869 c 0.281,0.918 0.564,1.379 0.848,1.379 0.281,0 0.424,-0.529 0.424,-1.59 v -27.658 h 10.598 z"
   id="path91" />
		<path
   fill="#009fc2"
   d="m 370.357,190.285 h -18.543 c -1.768,0 -2.65,0.883 -2.65,2.648 v 10.596 c 0,1.768 0.883,2.65 2.65,2.65 h 13.246 v 10.596 h -13.246 c -1.768,0 -2.65,0.883 -2.65,2.648 v 10.598 c 0,1.768 0.883,2.648 2.65,2.648 h 18.543 v 10.598 h -26.49 c -1.484,0 -2.738,-0.512 -3.762,-1.537 -1.025,-1.025 -1.537,-2.277 -1.537,-3.76 v -52.984 c 0,-1.482 0.512,-2.738 1.537,-3.762 1.023,-1.023 2.277,-1.537 3.762,-1.537 h 26.49 z"
   id="path92" />
	</g>
	<g
   id="g101">
		<g
   id="g100">
			<path
   fill="#d11242"
   d="m 141.553,179.264 c -5.887,0.006 -10.656,4.779 -10.656,10.656 0,5.893 4.769,10.66 10.656,10.66 5.887,0 10.661,-4.768 10.661,-10.66 0,-5.877 -4.774,-10.656 -10.661,-10.656 z"
   id="path93" />
			<path
   fill="#d11242"
   d="m 141.553,95.636 c 5.887,0 10.661,-4.769 10.661,-10.661 0,-5.887 -4.774,-10.656 -10.661,-10.656 -5.887,0 -10.661,4.769 -10.661,10.656 0,5.893 4.774,10.661 10.661,10.661 z"
   id="path94" />
			<path
   fill="#d11242"
   d="m 90.78,154.457 c -5.101,2.939 -6.847,9.455 -3.901,14.561 2.941,5.096 9.46,6.842 14.562,3.906 5.096,-2.951 6.842,-9.465 3.901,-14.572 -2.946,-5.09 -9.466,-6.842 -14.562,-3.895 z"
   id="path95" />
			<path
   fill="#d11242"
   d="m 141.553,117.771 c -10.868,0 -19.68,8.816 -19.68,19.685 0,10.857 8.812,19.679 19.68,19.679 10.868,0 19.679,-8.822 19.679,-19.679 0,-10.869 -8.811,-19.685 -19.679,-19.685 z"
   id="path96" />
			<path
   fill="#d11242"
   d="m 101.441,101.976 c -5.101,-2.936 -11.621,-1.189 -14.562,3.906 -2.946,5.102 -1.2,11.621 3.901,14.557 5.096,2.952 11.616,1.195 14.562,-3.896 2.941,-5.101 1.195,-11.621 -3.901,-14.567 z"
   id="path97" />
			<path
   fill="#d11242"
   d="M 241.799,32.467 H 41.308 c -2.744,0 -4.967,2.225 -4.967,4.968 v 200.491 c 0,2.742 2.223,4.967 4.967,4.967 H 241.8 c 2.744,0 4.967,-2.225 4.967,-4.967 V 37.435 c -0.001,-2.743 -2.224,-4.968 -4.968,-4.968 z m -31.196,73.994 c 0,0 -0.027,-0.011 -0.077,-0.033 -0.054,-0.017 -0.109,-0.027 -0.164,-0.044 -0.78,-0.174 -3.208,-0.316 -3.693,4.256 0.196,6.994 -3.345,13.874 -9.832,17.616 -5.02,2.893 -10.787,3.328 -15.904,1.676 -1.146,-0.295 -5.729,-0.938 -6.58,7.463 l -0.005,-0.016 c 0,0.021 0,0.049 0,0.076 0,0.017 0,0.039 0,0.065 l 0.011,-0.021 c 0.862,8.528 5.565,7.737 6.624,7.447 0.055,-0.011 0.114,-0.027 0.169,-0.044 0.027,-0.011 0.044,-0.021 0.044,-0.021 5.052,-1.55 10.704,-1.086 15.642,1.767 6.465,3.727 10.006,10.58 9.832,17.535 0.562,5.539 3.939,4.25 3.939,4.25 l -0.011,0.018 c 2.581,-0.633 5.401,-0.328 7.889,1.107 5.096,2.936 6.842,9.461 3.9,14.566 -2.946,5.096 -9.465,6.832 -14.562,3.896 -2.488,-1.436 -4.163,-3.721 -4.899,-6.285 l -0.005,0.01 c 0,0 0,-0.027 -0.016,-0.076 -0.011,-0.055 -0.027,-0.109 -0.044,-0.158 -0.234,-0.752 -1.32,-2.945 -5.538,-1.068 -5.958,3.66 -13.684,4.037 -20.165,0.289 -5.02,-2.902 -8.276,-7.682 -9.4,-12.932 -0.316,-1.145 -2.057,-5.439 -9.755,-1.975 l 0.005,-0.016 c -0.038,0.027 -0.076,0.049 -0.114,0.076 h 0.016 c -6.956,5.008 -3.917,8.691 -3.137,9.461 0.044,0.037 0.082,0.086 0.125,0.119 0.017,0.016 0.027,0.027 0.033,0.033 3.874,3.596 6.302,8.729 6.302,14.42 0,7.463 -4.157,13.961 -10.279,17.289 -4.512,3.258 -1.708,5.543 -1.708,5.543 h -0.021 c 1.844,1.916 2.99,4.508 2.99,7.383 0,5.887 -4.774,10.654 -10.661,10.654 -5.887,0 -10.656,-4.768 -10.656,-10.654 0,-2.871 1.141,-5.467 2.984,-7.383 0.011,-0.016 0.033,-0.033 0.06,-0.059 0.033,-0.039 0.071,-0.072 0.104,-0.109 0.535,-0.584 1.898,-2.625 -1.839,-5.336 -6.149,-3.328 -10.333,-9.838 -10.333,-17.328 0,-5.795 2.51,-11 6.503,-14.605 0.829,-0.84 3.677,-4.496 -3.175,-9.428 h 0.011 c -0.038,-0.027 -0.076,-0.039 -0.114,-0.076 l 0.011,0.016 c -7.818,-3.514 -9.488,0.971 -9.766,2.02 -0.011,0.055 -0.027,0.113 -0.038,0.168 -0.005,0.039 -0.011,0.045 -0.011,0.045 -1.179,5.15 -4.409,9.82 -9.346,12.674 -6.46,3.736 -14.158,3.377 -20.105,-0.268 -5.074,-2.27 -5.652,1.287 -5.652,1.287 l -0.011,-0.016 c -0.731,2.559 -2.412,4.85 -4.894,6.285 -5.102,2.936 -11.621,1.199 -14.562,-3.896 -2.946,-5.105 -1.195,-11.631 3.901,-14.566 1.675,-0.967 3.503,-1.42 5.303,-1.42 0.873,0 1.741,0.105 2.581,0.312 0,0 0.039,0.01 0.104,0.037 0.038,0.006 0.076,0.018 0.114,0.018 0.758,0.18 3.225,0.365 3.716,-4.256 -0.197,-6.984 3.344,-13.863 9.826,-17.611 5.025,-2.892 10.792,-3.329 15.904,-1.669 1.14,0.294 5.734,0.943 6.58,-7.47 l 0.005,0.021 c 0,-0.026 0,-0.049 0,-0.065 0,-0.027 0,-0.055 0,-0.076 l -0.005,0.021 c -0.862,-8.538 -5.57,-7.736 -6.629,-7.447 -0.055,0.006 -0.109,0.027 -0.164,0.044 -0.033,0.011 -0.049,0.022 -0.049,0.022 -5.046,1.549 -10.704,1.085 -15.642,-1.764 -6.459,-3.726 -10,-10.578 -9.832,-17.54 -0.556,-5.543 -3.934,-4.255 -3.934,-4.255 l 0.005,-0.011 c -2.581,0.639 -5.396,0.333 -7.884,-1.107 -5.096,-2.935 -6.847,-9.466 -3.901,-14.567 2.941,-5.085 9.46,-6.836 14.562,-3.896 2.482,1.43 4.163,3.727 4.894,6.285 l 0.005,-0.011 c 0,0 0.005,0.038 0.021,0.115 0.011,0.033 0.027,0.071 0.033,0.109 0.234,0.742 1.304,2.968 5.548,1.08 5.953,-3.655 13.678,-4.037 20.16,-0.289 5.02,2.908 8.282,7.677 9.406,12.931 0.311,1.146 2.046,5.439 9.75,1.97 l -0.005,0.021 c 0.038,-0.027 0.076,-0.054 0.12,-0.065 h -0.021 c 6.956,-5.014 3.917,-8.691 3.143,-9.466 -0.044,-0.044 -0.087,-0.093 -0.131,-0.12 -0.022,-0.027 -0.039,-0.038 -0.039,-0.038 -3.868,-3.601 -6.296,-8.729 -6.296,-14.425 0,-7.458 4.157,-13.945 10.279,-17.285 4.512,-3.246 1.708,-5.532 1.708,-5.532 h 0.021 c -1.844,-1.915 -2.99,-4.512 -2.99,-7.393 0,-5.881 4.774,-10.655 10.661,-10.655 5.887,0 10.661,4.774 10.661,10.655 0,2.88 -1.146,5.478 -2.99,7.393 h 0.011 c 0,0 -0.038,0.027 -0.098,0.077 -0.017,0.027 -0.033,0.043 -0.049,0.06 -0.507,0.535 -1.997,2.597 1.817,5.369 6.149,3.317 10.328,9.826 10.328,17.312 0,5.789 -2.504,11.004 -6.493,14.605 -0.829,0.834 -3.693,4.49 3.165,9.444 h -0.016 c 0.043,0.011 0.082,0.038 0.125,0.065 l -0.011,-0.021 c 7.796,3.508 9.477,-0.928 9.761,-2.008 0.016,-0.065 0.033,-0.12 0.049,-0.191 0,-0.011 0.005,-0.033 0.005,-0.033 1.178,-5.15 4.408,-9.815 9.346,-12.658 6.46,-3.737 14.158,-3.377 20.105,0.251 5.074,2.275 5.647,-1.288 5.647,-1.288 l 0.011,0.021 c 0.737,-2.559 2.412,-4.855 4.899,-6.285 5.096,-2.94 11.616,-1.189 14.562,3.907 2.941,5.09 1.195,11.621 -3.9,14.556 -2.488,1.44 -5.309,1.746 -7.889,1.107 z"
   id="path98" />
			<path
   fill="#d11242"
   d="m 181.67,172.924 c 5.101,2.936 11.616,1.189 14.562,-3.906 2.941,-5.096 1.195,-11.621 -3.901,-14.561 -5.101,-2.947 -11.621,-1.195 -14.562,3.895 -2.946,5.107 -1.195,11.621 3.901,14.572 z"
   id="path99" />
			<path
   fill="#d11242"
   d="m 181.67,101.976 c -5.096,2.946 -6.847,9.466 -3.901,14.567 2.946,5.09 9.46,6.847 14.562,3.896 5.096,-2.936 6.842,-9.455 3.901,-14.557 -2.946,-5.095 -9.466,-6.841 -14.562,-3.906 z"
   id="path100" />
		</g>
	</g>
</g></g><rect
       style="fill:#550000;stroke:#000000;stroke-width:0.429033"
       id="rect103"
       width="498.08124"
       height="226.442"
       x="-8.6060896"
       y="603.44623"
       rx="5.9000001"
       ry="5" /><path
       fill="#009fc2"
       d="m 250.71851,633.90559 c 0,4.29619 -1.5249,7.96869 -4.57371,11.01652 -3.04783,3.04685 -6.72033,4.57077 -11.01455,4.57077 h -2.59674 c -1.73377,0 -2.5987,0.8659 -2.5987,2.59869 v 23.38044 h -10.39087 v -57.15272 c 0,-1.45331 0.50209,-2.68304 1.50725,-3.68819 1.00319,-1.00418 2.23292,-1.50725 3.68917,-1.50725 h 10.39087 c 4.2952,0 7.96672,1.52588 11.01455,4.57273 3.04881,3.04881 4.57371,6.71935 4.57371,11.01456 v 5.19445 z m -10.39283,0 v -5.19445 c 0,-1.45331 -0.50209,-2.68304 -1.50725,-3.68819 -1.00319,-1.00516 -2.23488,-1.50725 -3.68917,-1.50725 h -2.59673 c -1.73377,0 -2.5987,0.86591 -2.5987,2.59576 v 10.39283 c 0,1.73181 0.86591,2.59772 2.5987,2.59772 h 2.59673 c 1.45331,0 2.685,-0.50209 3.68917,-1.50627 1.00614,-1.00516 1.50725,-2.23292 1.50725,-3.69015 z"
       id="path103"
       style="stroke-width:0.980641" /><path
       fill="#009fc2"
       d="m 286.64036,659.88472 c 0,4.29619 -1.52686,7.96771 -4.57371,11.01652 -3.04685,3.04685 -6.71935,4.57077 -11.01455,4.57077 -4.29423,0 -7.96771,-1.52392 -11.01456,-4.57077 -3.04685,-3.04881 -4.57175,-6.72131 -4.57175,-11.01652 v -46.76087 h 10.39283 v 46.76186 c 0,1.45429 0.50209,2.68401 1.50529,3.68917 1.00515,1.00319 2.23488,1.50626 3.68917,1.50626 1.45429,0 2.68499,-0.50307 3.68917,-1.50626 1.00515,-1.00418 1.50724,-2.2339 1.50724,-3.68917 v -46.76186 h 10.39283 v 46.76087 z"
       id="path104"
       style="stroke-width:0.980641" /><path
       fill="#009fc2"
       d="m 346.28489,675.47299 h -10.39087 v -49.36055 c 0,-1.73083 -0.8659,-2.59576 -2.59673,-2.59576 h -2.5987 c -1.45331,0 -2.68304,0.50209 -3.68917,1.50725 -1.0032,1.00417 -1.50725,2.2339 -1.50725,3.68819 v 46.76185 H 315.1113 v -46.76283 c 0,-1.45331 -0.50208,-2.68304 -1.50724,-3.68819 -1.0032,-1.00516 -2.23488,-1.50725 -3.68917,-1.50725 h -2.59674 c -1.73377,0 -2.5987,0.86591 -2.5987,2.59576 v 49.36055 h -10.39087 v -62.34914 h 15.58729 c 3.94708,0 7.41266,1.317 10.39283,3.94806 2.9782,-2.63204 6.44085,-3.94806 10.39087,-3.94806 h 15.58728 v 62.35012 z"
       id="path105"
       style="stroke-width:0.980641" /><path
       fill="#009fc2"
       d="m 385.14866,633.90559 c 0,4.29619 -1.52489,7.96869 -4.5737,11.01652 -3.04686,3.04685 -6.71935,4.57077 -11.0126,4.57077 h -2.59674 c -1.73377,0 -2.59869,0.8659 -2.59869,2.59869 v 23.38044 h -10.39087 v -57.15272 c 0,-1.45331 0.50208,-2.68304 1.50724,-3.68819 1.0032,-1.00418 2.23292,-1.50725 3.68917,-1.50725 h 10.39087 c 4.29423,0 7.96575,1.52588 11.0126,4.57273 3.04881,3.04881 4.5737,6.71935 4.5737,11.01456 v 5.19445 z m -10.39087,0 v -5.19445 c 0,-1.45331 -0.50404,-2.68304 -1.50724,-3.68819 -1.00516,-1.00516 -2.23488,-1.50725 -3.68917,-1.50725 h -2.59674 c -1.73377,0 -2.59869,0.86591 -2.59869,2.59576 v 10.39283 c 0,1.73181 0.8659,2.59772 2.59869,2.59772 h 2.59674 c 1.45331,0 2.68303,-0.50209 3.68917,-1.50627 1.0032,-1.00516 1.50724,-2.23292 1.50724,-3.69015 z"
       id="path106"
       style="stroke-width:0.980641" /><path
       fill="#009fc2"
       d="M 402.2481,675.47299 H 391.85723 V 613.12385 H 402.2481 Z"
       id="path107"
       style="stroke-width:0.980641" /><path
       fill="#009fc2"
       d="M 441.11187,675.47299 H 430.721 l -8.93658,-26.80876 c -0.41775,-1.24835 -0.76196,-1.87302 -1.04046,-1.87302 -0.20691,0 -0.34715,0.59133 -0.41579,1.76908 v 26.9127 H 409.9373 v -62.34914 h 10.39087 l 9.14349,27.32948 c 0.27753,0.90023 0.55505,1.35132 0.83355,1.35132 0.27556,0 0.41579,-0.51876 0.41579,-1.55824 v -27.12256 h 10.39087 z"
       id="path108"
       style="stroke-width:0.980641" /><path
       fill="#009fc2"
       d="m 479.97564,659.88472 c 0,4.29619 -1.52489,7.96771 -4.57175,11.01652 -3.04881,3.04685 -6.72131,4.57077 -11.01455,4.57077 -4.29619,0 -7.96771,-1.52392 -11.01456,-4.57077 -3.04881,-3.04881 -4.57371,-6.72131 -4.57371,-11.01652 v -31.17358 c 0,-4.29619 1.5249,-7.96575 4.57371,-11.01456 3.04685,-3.04685 6.71935,-4.57273 11.01456,-4.57273 4.29422,0 7.96574,1.52588 11.01455,4.57273 3.04686,3.04881 4.57175,6.71935 4.57175,11.01456 h -10.39087 c 0,-1.45331 -0.50405,-2.68304 -1.50724,-3.68819 -1.00516,-1.00516 -2.23488,-1.50725 -3.68917,-1.50725 -1.45527,0 -2.685,0.50209 -3.68917,1.50725 -1.00516,1.00417 -1.50725,2.2339 -1.50725,3.68819 v 31.17358 c 0,1.4543 0.50405,2.68402 1.51313,3.68918 1.00516,1.00319 2.24077,1.50626 3.69996,1.50626 1.45919,0 2.69284,-0.50307 3.70192,-1.50626 1.00515,-1.00418 1.51116,-2.2339 1.51116,-3.68918 0,-1.03849 0.0343,-2.28685 0.10297,-3.74114 0.0687,-1.45135 0.10493,-2.38982 0.10493,-2.80463 0,-1.5249 -0.35009,-2.54378 -1.04732,-3.0645 -0.69724,-0.51974 -2.16036,-0.78059 -4.39229,-0.78059 v -10.39087 h 15.58728 v 20.78173 z"
       id="path109"
       style="stroke-width:0.980641" /><path
       fill="#009fc2"
       d="m 250.71851,732.25405 c 0,4.29619 -1.5249,7.96771 -4.57371,11.01652 -3.04783,3.04685 -6.72033,4.56978 -11.01455,4.56978 -4.29423,0 -7.96673,-1.52293 -11.01456,-4.56978 -3.04783,-3.04881 -4.57175,-6.72131 -4.57175,-11.01652 h 10.39087 c 0,1.45527 0.50405,2.68303 1.50725,3.68917 1.00417,1.0032 2.23389,1.50724 3.68917,1.50724 2.56241,0 4.19223,-1.21011 4.88359,-3.63719 0.20789,-0.90219 0.31184,-3.15276 0.31184,-6.75367 0,-1.45331 -0.50209,-2.685 -1.50724,-3.69016 -1.0032,-1.00319 -2.23488,-1.50724 -3.68917,-1.50724 -4.29423,0 -7.96673,-1.52294 -11.01456,-4.56979 -3.04783,-3.04685 -4.57175,-6.72131 -4.57175,-11.01651 v -5.19446 c 0,-4.29619 1.52392,-7.96476 4.57175,-11.01455 3.04783,-3.04686 6.72131,-4.57273 11.01456,-4.57273 4.2952,0 7.96672,1.52587 11.01455,4.57273 3.04881,3.04979 4.57371,6.71935 4.57371,11.01455 h -10.39283 c 0,-1.45331 -0.50209,-2.68303 -1.50725,-3.68819 -1.00319,-1.00515 -2.23488,-1.50724 -3.68917,-1.50724 -2.56241,0 -4.19027,1.21011 -4.88359,3.63621 -0.20691,0.90121 -0.31184,3.15276 -0.31184,6.75368 0,1.45527 0.50405,2.68499 1.50724,3.69113 1.00418,1.00319 2.2339,1.50528 3.68918,1.50528 4.2952,0 7.96672,1.5249 11.01455,4.57175 3.04881,3.04881 4.57371,6.72131 4.57371,11.01652 z"
       id="path110"
       style="stroke-width:0.980641" /><path
       fill="#009fc2"
       d="m 285.65972,695.88503 h -7.79511 c -1.73181,0 -2.59674,0.8659 -2.59674,2.59575 v 49.35957 H 264.877 v -49.35957 c 0,-1.73083 -0.86787,-2.59575 -2.5987,-2.59575 h -7.79315 v -10.39185 h 31.17555 v 10.39185 z"
       id="path111"
       style="stroke-width:0.980641" /><path
       fill="#009fc2"
       d="M 321.57863,747.84133 H 311.18776 V 724.4609 c 0,-1.73083 -0.86787,-2.5987 -2.5987,-2.5987 h -5.19445 c -1.73378,0 -2.5987,0.86787 -2.5987,2.5987 v 23.38043 h -10.39087 v -46.76087 c 0,-4.29619 1.5249,-7.96476 4.57175,-11.01456 3.04881,-3.04685 6.72131,-4.57272 11.01455,-4.57272 4.29619,0 7.96771,1.52587 11.01456,4.57272 3.04881,3.0498 4.57175,6.71935 4.57175,11.01456 v 46.76087 z m -10.38989,-38.96674 v -7.79413 c 0,-1.45331 -0.50209,-2.68303 -1.50724,-3.68819 -1.0032,-1.00516 -2.23488,-1.50724 -3.68918,-1.50724 -1.45527,0 -2.68303,0.50208 -3.68917,1.50724 -1.00319,1.00418 -1.50724,2.2339 -1.50724,3.68819 v 7.79413 c 0,1.73182 0.86591,2.59674 2.5987,2.59674 h 5.19445 c 1.73181,0 2.59968,-0.86492 2.59968,-2.59674 z"
       id="path112"
       style="stroke-width:0.980641" /><path
       fill="#009fc2"
       d="m 358.48112,695.88503 h -7.79315 c -1.73377,0 -2.59674,0.8659 -2.59674,2.59575 v 49.35957 H 337.6984 v -49.35957 c 0,-1.73083 -0.8659,-2.59575 -2.59674,-2.59575 h -7.79315 v -10.39185 h 31.17359 v 10.39185 z"
       id="path113"
       style="stroke-width:0.980641" /><path
       fill="#009fc2"
       d="m 374.60089,747.84133 h -10.39087 v -62.34815 h 10.39087 z"
       id="path114"
       style="stroke-width:0.980641" /><path
       fill="#009fc2"
       d="m 414.44531,732.25405 c 0,4.29619 -1.5249,7.96771 -4.57175,11.01652 -3.04881,3.04685 -6.72131,4.56978 -11.01456,4.56978 -4.29618,0 -7.9677,-1.52293 -11.01455,-4.56978 -3.04882,-3.04881 -4.57175,-6.72131 -4.57175,-11.01652 v -31.17359 c 0,-4.29619 1.52293,-7.96476 4.57175,-11.01456 3.04685,-3.04685 6.71935,-4.57272 11.01455,-4.57272 4.29423,0 7.96575,1.52587 11.01456,4.57272 3.04685,3.0498 4.57175,6.71935 4.57175,11.01456 z m -10.39087,0 v -31.17359 c 0,-1.45331 -0.50405,-2.68303 -1.50725,-3.68819 -1.00515,-1.00516 -2.23488,-1.50724 -3.68917,-1.50724 -1.45527,0 -2.68303,0.50208 -3.68917,1.50724 -1.00516,1.00418 -1.50724,2.2339 -1.50724,3.68819 v 31.17359 c 0,1.45527 0.50208,2.68303 1.50724,3.68917 1.00516,1.0032 2.23292,1.50724 3.68917,1.50724 1.45331,0 2.68303,-0.50404 3.68917,-1.50724 1.0032,-1.00516 1.50725,-2.23292 1.50725,-3.68917 z"
       id="path115"
       style="stroke-width:0.980641" /><path
       fill="#009fc2"
       d="m 454.28972,747.84133 h -10.39087 l -8.93658,-26.80777 c -0.41579,-1.24836 -0.76196,-1.87303 -1.04046,-1.87303 -0.20691,0 -0.34715,0.59231 -0.41579,1.7681 v 26.91368 h -10.39087 v -62.34913 h 10.39087 l 9.14546,27.32947 c 0.27556,0.90219 0.55308,1.35231 0.82962,1.35231 0.27752,0 0.41775,-0.51876 0.41775,-1.55922 v -27.12256 h 10.39087 z"
       id="path116"
       style="stroke-width:0.980641" /><path
       fill="#009fc2"
       d="M 474.33107,716.66775 H 463.9402 v -13.33476 h 10.39087 z m 0,31.17358 H 463.9402 v -13.33279 h 10.39087 z"
       id="path117"
       style="stroke-width:0.980641" /><path
       fill="#009fc2"
       d="m 250.71851,804.62435 c 0,4.29619 -1.5249,7.96771 -4.57371,11.01456 -3.04783,3.04881 -6.72033,4.57175 -11.01455,4.57175 -4.29423,0 -7.96673,-1.52294 -11.01456,-4.57175 -3.04783,-3.04685 -4.57175,-6.71935 -4.57175,-11.01456 v -31.17358 c 0,-4.29619 1.52392,-7.96575 4.57175,-11.01456 3.04783,-3.04685 6.72131,-4.57371 11.01456,-4.57371 4.2952,0 7.96672,1.52686 11.01455,4.57371 3.04881,3.04881 4.57371,6.71935 4.57371,11.01456 z m -10.39283,0 v -31.17358 c 0,-1.45527 -0.50209,-2.685 -1.50725,-3.68917 -1.00319,-1.00516 -2.23488,-1.50725 -3.68917,-1.50725 -1.45429,0 -2.68401,0.50209 -3.68917,1.50725 -1.00319,1.00319 -1.50724,2.23292 -1.50724,3.68917 v 31.17358 c 0,1.45331 0.50405,2.68304 1.50724,3.68721 1.00418,1.00516 2.2339,1.50725 3.68917,1.50725 1.45331,0 2.685,-0.50209 3.68917,-1.50725 1.00614,-1.00417 1.50725,-2.2339 1.50725,-3.68721 z"
       id="path118"
       style="stroke-width:0.980641" /><path
       fill="#009fc2"
       d="m 289.58228,820.21164 h -10.39283 l -8.93658,-26.80876 c -0.41579,-1.24835 -0.76195,-1.87302 -1.03849,-1.87302 -0.20888,0 -0.34813,0.59034 -0.4158,1.76809 v 26.91369 H 258.40575 V 757.8625 h 10.39283 l 9.1435,27.32948 c 0.27556,0.90023 0.55308,1.3523 0.83158,1.3523 0.27556,0 0.41579,-0.51876 0.41579,-1.55922 V 757.8625 h 10.39283 z"
       id="path119"
       style="stroke-width:0.980641" /><path
       fill="#009fc2"
       d="m 328.44311,768.25435 h -18.18402 c -1.73377,0 -2.5987,0.86591 -2.5987,2.59674 v 10.39087 c 0,1.73377 0.86591,2.5987 2.5987,2.5987 h 12.98957 v 10.39086 h -12.98957 c -1.73377,0 -2.5987,0.86591 -2.5987,2.59674 v 10.39283 c 0,1.73377 0.86591,2.59674 2.5987,2.59674 h 18.18402 v 10.39283 h -25.97717 c -1.45527,0 -2.68499,-0.50209 -3.68917,-1.50725 -1.00516,-1.00515 -1.50724,-2.23292 -1.50724,-3.68721 v -51.95826 c 0,-1.45331 0.50208,-2.685 1.50724,-3.68917 1.0032,-1.0032 2.23292,-1.50725 3.68917,-1.50725 h 25.97717 z"
       id="path120"
       style="stroke-width:0.980641" /><path
       style="stroke-width:0.980641"
       d="m 171.78183,686.05312 c 0,0 -0.0265,-0.0108 -0.0755,-0.0324 -0.053,-0.0167 -0.10689,-0.0265 -0.16083,-0.0431 -0.7649,-0.17063 -3.1459,-0.30988 -3.62151,4.17361 0.19221,6.8586 -3.28024,13.60541 -9.64166,17.27497 -4.92281,2.83699 -10.57817,3.26357 -15.59611,1.64355 -1.12381,-0.28929 -5.61809,-0.91984 -6.45261,7.31852 l -0.005,-0.0157 c 0,0.0206 0,0.048 0,0.0745 0,0.0167 0,0.0383 0,0.0637 l 0.0108,-0.0206 c 0.84531,8.3629 5.45727,7.58722 6.49577,7.30283 0.0539,-0.0108 0.11179,-0.0265 0.16572,-0.0432 0.0265,-0.0108 0.0431,-0.0206 0.0431,-0.0206 4.9542,-1.51999 10.49678,-1.06498 15.33919,1.73279 6.33984,3.65485 9.81229,10.37518 9.64165,17.19554 0.55112,5.43177 3.86275,4.16772 3.86275,4.16772 l -0.0108,0.0177 c 2.53104,-0.62074 5.29644,-0.32165 7.73628,1.08557 4.99734,2.87916 6.70954,9.27784 3.8245,14.28401 -2.88897,4.99735 -9.28177,6.69974 -14.2801,3.82058 -2.43983,-1.4082 -4.0824,-3.64896 -4.80415,-6.16333 l -0.005,0.01 c 0,0 0,-0.0265 -0.0157,-0.0745 -0.0108,-0.0539 -0.0265,-0.10689 -0.0431,-0.15494 -0.22947,-0.73744 -1.29444,-2.88799 -5.43078,-1.04732 -5.84266,3.58914 -13.41909,3.95884 -19.77462,0.2834 -4.92282,-2.84582 -8.11579,-7.53328 -9.21803,-12.68165 -0.30988,-1.12283 -2.01718,-5.3337 -9.56615,-1.93676 l 0.005,-0.0157 c -0.0373,0.0265 -0.0745,0.048 -0.1118,0.0745 h 0.0157 c -6.82133,4.91105 -3.84117,8.52275 -3.07627,9.27784 0.0431,0.0363 0.0804,0.0843 0.12258,0.1167 0.0167,0.0157 0.0265,0.0265 0.0324,0.0324 3.79901,3.52638 6.18,8.56001 6.18,14.14084 0,7.31852 -4.07652,13.69072 -10.08,16.95429 -4.42466,3.19493 -1.67494,5.4357 -1.67494,5.4357 h -0.0206 c 1.8083,1.8789 2.93211,4.42072 2.93211,7.24007 0,5.77303 -4.68158,10.44774 -10.45461,10.44774 -5.773029,0 -10.449705,-4.67569 -10.449705,-10.44774 0,-2.81542 1.118911,-5.36117 2.926232,-7.24007 0.01079,-0.0157 0.03236,-0.0324 0.05884,-0.0579 0.03236,-0.0382 0.06963,-0.0706 0.101986,-0.10689 0.524643,-0.5727 1.861256,-2.57418 -1.803398,-5.2327 -6.02996,-3.26357 -10.132961,-9.64754 -10.132961,-16.99254 0,-5.68282 2.461409,-10.78705 6.377107,-14.32226 0.812951,-0.82374 3.605816,-4.40896 -3.113534,-9.24548 h 0.01079 c -0.03726,-0.0265 -0.07453,-0.0383 -0.111793,-0.0745 l 0.01079,0.0157 c -7.666649,-3.44597 -9.30432,0.9522 -9.576938,1.98089 -0.01079,0.0539 -0.02648,0.11082 -0.03726,0.16475 -0.0049,0.0383 -0.01079,0.0441 -0.01079,0.0441 -1.156175,5.0503 -4.323645,9.62989 -9.165068,12.42864 -6.334939,3.66367 -13.883912,3.31162 -19.715782,-0.26281 -4.975771,-2.22606 -5.542582,1.26208 -5.542582,1.26208 l -0.01079,-0.0157 c -0.716848,2.50946 -2.365305,4.75611 -4.799255,6.16333 -5.003229,2.87916 -11.396026,1.17579 -14.280091,-3.82058 -2.888967,-5.00617 -1.171865,-11.40583 3.82548,-14.28401 1.642573,-0.94828 3.435184,-1.39251 5.200338,-1.39251 0.856099,0 1.707295,0.10297 2.531033,0.30596 0,0 0.03824,0.01 0.101987,0.0363 0.03726,0.006 0.07453,0.0177 0.111793,0.0177 0.743326,0.17651 3.162566,0.35793 3.644061,-4.17361 -0.193186,-6.8488 3.279263,-13.59462 9.635776,-17.27006 4.927719,-2.83602 10.583075,-3.26456 15.59611,-1.63669 1.11793,0.2883 5.622994,0.92474 6.452616,-7.32539 l 0.0049,0.0206 c 0,-0.0255 0,-0.048 0,-0.0637 0,-0.0265 0,-0.0539 0,-0.0745 l -0.0049,0.0206 c -0.845312,-8.37271 -5.462169,-7.58624 -6.500667,-7.30284 -0.05394,0.006 -0.10689,0.0265 -0.160826,0.0431 -0.03236,0.0108 -0.04805,0.0216 -0.04805,0.0216 -4.948313,1.51901 -10.496778,1.06399 -15.339182,-1.72985 -6.333959,-3.65387 -9.806408,-10.37322 -9.64166,-17.20044 -0.545236,-5.43569 -3.857841,-4.17263 -3.857841,-4.17263 l 0.0049,-0.0108 c -2.531034,0.62662 -5.291538,0.32655 -7.731372,-1.08557 -4.997345,-2.87818 -6.714447,-9.28275 -3.825479,-14.285 2.884064,-4.98656 9.276861,-6.70366 14.28009,-3.82057 2.43395,1.40231 4.082407,3.65484 4.799256,6.16332 l 0.0049,-0.0108 c 0,0 0.0049,0.0373 0.02059,0.11277 0.01079,0.0324 0.02648,0.0696 0.03236,0.10689 0.229469,0.72763 1.278755,2.91054 5.440594,1.05909 5.837755,-3.58424 13.413204,-3.95885 19.769717,-0.2834 4.922817,2.8517 8.121667,7.52838 9.223907,12.68066 0.304979,1.12382 2.006391,5.33371 9.561247,1.93186 l -0.0049,0.0206 c 0.03726,-0.0265 0.07453,-0.053 0.117677,-0.0637 h -0.02059 c 6.821337,-4.91694 3.84117,-8.52275 3.082154,-9.28275 -0.04315,-0.0432 -0.08531,-0.0912 -0.128464,-0.11768 -0.02157,-0.0265 -0.03825,-0.0373 -0.03825,-0.0373 -3.793118,-3.53129 -6.174114,-8.56001 -6.174114,-14.14574 0,-7.31362 4.076524,-13.67504 10.080006,-16.95038 4.424651,-3.18316 1.674935,-5.4249 1.674935,-5.4249 h 0.02059 c -1.808301,-1.87793 -2.932116,-4.42465 -2.932116,-7.24988 0,-5.76715 4.681579,-10.44873 10.454606,-10.44873 5.77303,0 10.45461,4.68158 10.45461,10.44873 0,2.82425 -1.12381,5.37195 -2.93211,7.24988 h 0.0108 c 0,0 -0.0373,0.0265 -0.0961,0.0755 -0.0167,0.0265 -0.0324,0.0422 -0.0481,0.0588 -0.49718,0.52465 -1.95834,2.54673 1.78182,5.26506 6.02996,3.25279 10.12806,9.63578 10.12806,16.97686 0,5.67693 -2.45552,10.79097 -6.3673,14.32226 -0.81295,0.81785 -3.6215,4.40307 3.10373,9.26117 h -0.0157 c 0.0422,0.0108 0.0804,0.0373 0.12258,0.0637 l -0.0108,-0.0206 c 7.64508,3.44009 9.29353,-0.91003 9.57204,-1.96912 0.0157,-0.0637 0.0324,-0.11768 0.0481,-0.1873 0,-0.0108 0.005,-0.0324 0.005,-0.0324 1.1552,-5.0503 4.32267,-9.62498 9.16507,-12.41295 6.33494,-3.66465 13.88391,-3.31162 19.71578,0.24614 4.97577,2.23096 5.53768,-1.26306 5.53768,-1.26306 l 0.0108,0.0206 c 0.72273,-2.50946 2.3653,-4.76101 4.80416,-6.16332 4.99734,-2.88309 11.39112,-1.16599 14.28009,3.83136 2.88406,4.99146 1.17186,11.39603 -3.8245,14.27421 -2.43984,1.41212 -5.20622,1.71219 -7.73628,1.08557 z"
       id="path131" /></g></svg>
